<svg width="201" height="120" viewBox="0 0 201 120" fill="none" xmlns="http://www.w3.org/2000/svg">
<g clip-path="url(#clip0_1800_1095)">
<path d="M185.41 49.5871C185.495 49.4164 185.58 49.2171 185.664 49.0748C185.58 49.2171 185.467 49.4164 185.41 49.5871C185.551 49.5302 185.721 49.4448 185.862 49.3594C185.693 49.4448 185.551 49.5302 185.41 49.5871ZM180.07 70.6797C180.098 70.6797 180.098 70.7082 180.126 70.7082C180.098 70.6797 180.07 70.6797 180.07 70.6797ZM164.868 61.6279C164.868 61.6279 164.868 61.5994 164.896 61.5709C164.868 61.5994 164.839 61.5994 164.868 61.6279C164.868 61.6279 164.839 61.5994 164.868 61.6279ZM126.976 59.3222L127.032 59.3507V59.2653C127.004 59.2653 126.976 59.2937 126.976 59.3222C126.976 59.3222 126.976 59.2937 126.976 59.3222ZM127.004 52.576V52.4621L126.947 52.4906C126.976 52.5475 127.004 52.576 127.004 52.576ZM59.075 45.0612L59.1032 45.0897C59.075 45.0612 59.075 45.0612 59.075 45.0612H59.2163H59.075ZM48.4788 63.8481C48.4505 63.8481 48.4505 63.8481 48.4788 63.8481C48.4505 63.8481 48.4505 63.8481 48.4788 63.8481ZM32.5986 45.1181C32.6268 45.1181 32.6268 45.1181 32.6551 45.1181V45.0612C32.6268 45.0612 32.5986 45.0897 32.5986 45.1181C32.5986 45.0897 32.5986 45.0897 32.5986 45.1181ZM32.6268 39.9375C32.6268 39.9375 32.5986 39.9375 32.5703 39.9375C32.5703 40.1368 32.5986 40.3075 32.6268 40.5068V39.9375Z" fill="white"/>
<path d="M180.07 70.6797L180.127 70.7082C180.099 70.6797 180.07 70.6797 180.07 70.6797Z" fill="white"/>
<path d="M197.25 67.805C196.996 68.545 196.996 69.2851 196.628 69.5983C195.046 71.0215 194.114 73.3272 191.627 73.6403C191.401 72.3309 191.401 72.3309 193.718 69.6552H178.686C179.307 70.1106 179.674 70.3668 180.07 70.623C179.901 70.8222 179.703 71.2208 179.618 71.1923C177.838 70.7084 176.114 71.42 174.334 71.2777C172.413 71.1069 170.491 71.2492 168.541 71.2492C166.79 71.2492 166.676 71.0215 166.535 69.3705C166.422 68.0611 166.931 67.1787 167.75 66.2394C169.361 64.4176 170.802 62.4535 172.328 60.5464C172.582 60.2333 172.978 60.0625 173.232 59.7493C174.927 57.7568 176.595 55.7642 178.29 53.7717C179.872 51.9215 181.511 50.0997 183.065 48.221C184.365 46.6554 185.58 45.0045 186.852 43.4104C187.191 42.9834 187.643 42.6703 187.954 42.2434C188.264 41.7879 188.491 41.2186 188.858 40.4785H170.604C170.18 43.1827 168.683 45.6592 169.248 48.5057C169.304 48.7334 168.796 49.0465 168.57 49.3311C168.315 49.075 167.835 48.7903 167.807 48.5341C167.778 45.6592 167.807 42.7557 167.835 39.8808C167.835 38.856 168.598 38.9699 169.248 38.9699C173.486 38.9699 177.725 38.9414 181.935 38.9414C185.778 38.9414 189.621 38.9414 193.52 38.9414C194.142 40.8201 192.616 41.8733 191.825 43.1542C191.147 44.2644 190.158 45.1752 189.253 46.1146C188.971 46.3992 188.575 46.627 188.208 46.7408C187.812 46.8547 187.36 46.8262 186.88 47.1393C187.219 47.2817 187.53 47.424 188.208 47.7086C187.304 48.0787 186.654 48.3633 185.778 48.7334C185.75 48.7903 185.693 48.9042 185.637 49.0465C185.58 49.1888 185.467 49.3881 185.382 49.5589C184.535 50.4128 183.659 51.2383 182.867 52.1492C181.172 54.1133 179.533 56.1628 177.838 58.1553C177.103 58.9808 176.34 59.7493 175.634 60.6033C175.097 61.258 174.673 62.055 174.108 62.6812C173.034 63.8768 171.96 65.0723 170.802 66.154C170.237 66.6948 169.446 66.9795 168.767 67.4064L168.88 67.748H197.25V67.805Z" fill="white"/>
<path d="M32.5996 39.966C32.6279 39.966 32.6279 39.9375 32.6561 39.9375L32.5996 39.966Z" fill="white"/>
<path d="M32.6561 45.1183C32.6561 45.1183 32.6279 45.1183 32.5996 45.1183V45.0898L32.6561 45.1183Z" fill="white"/>
<path d="M36.1029 67.4926C36.0747 67.6064 36.0464 67.7488 36.0464 67.8626C35.3682 68.0619 34.7183 68.4035 34.0402 68.4035C28.954 68.4604 23.8678 68.375 18.7816 68.4604C17.3971 68.4889 16.4363 68.1188 15.5321 66.724H20.6748C20.6748 66.5532 20.7031 66.4109 20.7031 66.2401C20.138 66.2116 19.6011 66.1263 19.0642 66.1547C14.7692 66.3255 10.4742 66.4963 6.17921 66.7525C5.44454 66.8094 4.73812 67.1795 3.83391 67.4926C3.86217 65.3862 3.24052 63.479 5.16197 62.1981C6.60306 61.2303 7.19644 59.0954 9.57 59.2946C9.28743 58.8961 9.14615 58.6684 8.89184 58.3268C9.45697 58.2699 9.93733 58.1845 10.4177 58.1276C10.3612 58.0706 10.2764 57.9852 10.2199 57.9283C11.2371 56.932 12.2261 55.9073 13.2716 54.9395C14.0345 54.2279 15.3343 53.7155 15.5886 52.8615C16.182 50.869 17.7927 49.8442 19.0925 48.6203C21.5508 46.2292 24.2634 44.0943 26.8065 41.8171C27.8803 40.8493 28.8692 39.7676 29.9147 38.7429C30.5929 38.0882 31.2145 37.462 31.1298 36.3518C31.1015 35.9248 31.5819 35.4409 31.8644 34.957C33.1077 35.8394 33.4751 37.7751 32.7969 39.1983C32.6839 39.426 32.6839 39.6822 32.6274 39.9384C32.4578 39.9384 32.1753 39.9669 32.1753 39.9669C32.2035 41.6463 32.2318 43.3542 32.2883 45.0337C32.2883 45.0621 32.4861 45.0621 32.6274 45.0906C32.7969 46.5138 33.0795 47.9371 33.1077 49.3888C33.1077 49.8158 32.4296 50.2712 32.0622 50.7267C31.7231 50.2712 31.0732 49.8158 31.045 49.3319C30.9602 47.4532 31.045 45.546 31.0732 43.6389C31.0732 42.9557 31.0732 42.301 31.0732 41.504C29.067 42.5287 7.93112 64.4183 7.84635 65.5H32.6556C32.6556 62.9382 32.6274 60.4048 32.6839 57.8714C32.6839 57.2167 33.0229 56.5905 33.1925 55.9358C33.3903 55.9358 33.5881 55.9358 33.8141 55.9358C33.9837 56.562 34.2945 57.2167 34.3228 57.8429C34.3793 59.7216 34.4358 61.6288 34.3228 63.5359C34.1815 65.2154 34.4075 66.6386 36.1029 67.4926Z" fill="white"/>
<path d="M164.841 61.6006L164.869 61.5721C164.869 61.6006 164.869 61.6006 164.841 61.6006C164.812 61.7145 164.756 61.7998 164.699 61.8852C164.53 62.1984 164.304 62.5399 164.304 62.8531C164.275 69.4 164.304 75.947 164.247 82.4939C164.247 83.1202 163.908 83.7749 163.739 84.4011C163.541 84.4011 163.343 84.4011 163.145 84.4011C162.947 83.7179 162.637 83.0632 162.608 82.3801C162.552 80.2452 162.637 78.1103 162.552 75.9754C162.524 75.3777 162.269 74.6376 161.845 74.2106C157.522 69.7985 153.142 65.4434 148.791 61.0598C147.548 59.8073 147.604 57.9286 148.819 56.6477C149.723 55.6799 150.543 54.5982 151.39 53.545C152.492 52.4633 153.594 51.4101 154.696 50.3284C156.138 49.7876 155.968 48.5067 156.138 47.3111C156.279 47.7381 156.392 48.1651 156.533 48.5921H156.872C156.929 48.279 157.07 47.9658 157.07 47.6243C157.098 46.1441 159.161 43.2406 160.517 42.9845C161.93 42.7283 162.58 41.732 163.286 40.6788C163.569 40.2803 163.88 39.9102 164.162 39.5117C164.332 39.5117 164.501 39.5117 164.643 39.5117C164.869 40.1949 165.264 40.878 165.264 41.5612C165.349 44.4931 165.349 47.425 165.264 50.3569C165.236 51.0685 164.784 51.7802 164.332 52.4633C162.382 50.3854 163.71 47.8804 163.032 45.4894C162.637 45.774 162.269 45.9448 162.015 46.201C158.257 49.9869 154.499 53.8012 150.741 57.6155C150.006 58.3556 149.836 58.9818 150.741 59.7788C152.266 61.1451 153.651 62.6823 155.205 64.0201C156.477 65.1303 158.002 65.9273 159.246 67.0659C160.376 68.1191 161.28 69.4285 162.439 70.8233V59.8642C160.8 59.8642 159.048 59.8642 157.353 59.8642C156.787 59.8642 156.166 60.0065 155.657 59.8358C155.092 59.6365 154.244 59.1811 154.216 58.7826C154.131 57.9855 154.866 57.6439 155.714 57.6439C157.974 57.6724 160.206 57.6439 162.524 57.6439C162.608 57.3024 162.665 56.9608 162.806 56.3346C163.513 56.8754 164.275 57.217 164.671 57.7863C165.547 58.9818 165.49 60.3197 164.841 61.6006Z" fill="white"/>
<path d="M145.653 65.1569C145.653 66.3239 144.834 66.8078 144.042 67.2064C143.901 67.2918 143.082 66.4093 142.799 65.84C139.804 59.777 136.837 53.7139 133.87 47.6509C133.814 47.537 133.701 47.4516 133.305 46.9677C132.853 51.2375 133.248 55.1372 133.192 59.0369C133.164 62.9081 133.192 66.8078 133.192 70.6791C133.022 70.6791 132.853 70.6791 132.655 70.6791V65.0999C132.514 65.0999 132.372 65.0715 132.231 65.0715C132.175 65.3846 132.09 65.7262 132.09 66.0393C132.09 68.7435 132.062 71.4477 132.09 74.1518C132.09 75.0627 131.807 75.8028 130.903 75.8028C129.999 75.7743 129.773 74.9773 129.801 74.0949C129.829 68.8289 129.745 63.5628 129.914 58.2968C129.942 56.8735 129.632 55.1087 131.355 54.1409C131.553 54.027 131.61 53.4577 131.61 53.1162C131.638 49.558 131.61 45.9999 131.666 42.4418C131.666 41.8155 131.949 41.1608 132.09 40.5346C132.372 40.5061 132.655 40.4777 132.938 40.4492C135.905 46.3699 138.871 52.2907 141.867 58.2683C142.912 57.5282 143.562 56.8451 143.506 55.4218C143.364 52.5753 143.449 49.7288 143.562 46.8823C143.59 46.2561 144.071 45.6583 144.353 45.0321C144.551 45.0606 144.721 45.089 144.918 45.089C145.116 45.7153 145.484 46.313 145.484 46.9392C145.597 53.0308 145.597 59.0938 145.653 65.1569Z" fill="white"/>
<path d="M130.848 83.0064C130 82.551 129.209 82.3232 128.728 81.8393C124.349 77.4557 119.997 73.0152 115.646 68.6031C115.533 68.4892 115.335 68.5177 115.165 68.4608C114.035 67.2937 112.876 66.1551 111.746 64.988C111.548 64.8172 111.351 64.5041 111.153 64.4757C110.644 64.3903 110.079 64.4472 109.57 64.4472C109.57 64.3333 109.542 64.2195 109.514 64.1056C109.881 63.9633 110.249 63.821 110.616 63.6786C107.762 63.8494 106.943 61.2022 105.275 59.8359C104.428 59.1527 103.891 58.3272 102.789 59.295C102.704 59.352 102.506 59.2666 102.28 59.2666C102.28 58.0141 102.082 56.7047 102.365 55.5092C102.563 54.7122 103.41 54.0859 104.032 53.4312C106.264 51.0971 108.525 48.7914 110.785 46.5142C112.82 44.4647 114.826 42.4153 116.945 40.4512C117.482 39.9388 118.358 39.6257 119.121 39.5403C120.675 39.398 122.229 39.398 123.783 39.5118C124.32 39.5688 124.801 40.1665 125.309 40.5366C124.829 40.9066 124.377 41.3905 123.812 41.5898C123.303 41.7606 122.681 41.7321 122.145 41.5898C118.556 40.7074 116.522 43.0984 114.459 45.3187C114.233 45.5749 114.176 45.9734 114.035 46.315C112.763 47.5959 111.492 48.9053 110.22 50.1862C109.966 50.3855 109.514 50.6132 109.514 50.784C109.768 52.6627 108.525 53.7159 107.395 54.7691C106.462 55.6515 106.603 56.2208 107.479 57.0748C111.774 61.2876 116.013 65.5858 120.28 69.8556C120.421 69.9979 120.647 70.0263 120.817 70.1402C122.71 72.0474 124.603 73.983 126.496 75.8901C126.75 76.0609 126.976 76.3456 127.259 76.4025C127.739 76.4879 128.22 76.431 128.7 76.431C128.7 76.5448 128.728 76.6587 128.728 76.7726C128.361 76.9149 127.994 77.0572 127.655 77.1995C128.983 77.3419 130.395 77.6265 130.819 78.822C131.187 79.9322 130.848 81.2985 130.848 83.0064Z" fill="white"/>
<path d="M48.4521 63.8761C48.4521 63.8761 48.4807 63.8761 48.4807 63.8477L48.4521 63.8761C48.4236 63.8761 48.4521 63.8477 48.4521 63.8761C48.4521 63.8761 48.4236 63.8761 48.4521 63.8761Z" fill="white"/>
<path d="M48.9608 62.4548C48.9608 62.9387 48.6217 63.3941 48.4522 63.878C48.4522 63.878 48.4239 63.9065 48.3956 63.9065C48.3391 63.935 48.2826 63.9634 48.2261 64.0204C48.0848 64.1058 47.9435 64.1911 47.9153 64.3335C47.8305 64.6466 47.887 64.9882 47.887 65.3297C47.6892 71.5921 47.5479 77.8828 47.2654 84.1451C47.2371 84.629 46.5307 85.0845 46.1351 85.5684C45.7678 85.0845 45.0896 84.5721 45.0896 84.0882C45.0614 76.4027 45.1179 68.7171 45.1744 61.06C45.1744 60.5192 45.1744 59.9783 45.1744 59.0959C43.2529 61.0031 41.6141 62.654 39.9469 64.2765C39.2405 64.9597 38.7036 66.0983 37.206 65.5005C37.206 63.1664 37.1495 60.7184 37.2343 58.2989C37.2908 57.0749 37.6581 55.8509 37.7429 54.6269C37.7712 54.1999 37.206 53.716 37.2343 53.289C37.3756 51.5242 37.2625 49.9586 35.7367 48.7631C35.5106 48.5923 35.5389 48.0799 35.7084 47.3398C36.3301 47.6245 37.0365 47.7953 37.5451 48.1938C39.0992 49.3893 39.5796 51.0118 39.41 52.9759C39.2405 54.6554 39.2688 56.3917 39.3535 58.0996C39.4383 59.4944 39.8056 60.8607 40.286 62.2555C40.3708 62.0278 40.5686 61.8001 40.5403 61.6293C40.2295 59.9783 41.162 59.0105 42.264 58.0427C44.2702 56.2494 46.1916 54.3422 48.3391 52.2928C48.5652 52.8621 48.8477 53.289 48.876 53.716C48.9325 56.5625 48.9608 59.4944 48.9608 62.4548Z" fill="white"/>
<path d="M100.133 77.113C99.7087 77.3977 99.9065 78.764 99.8783 79.6464C99.8218 80.6142 100.133 82.009 98.748 82.0375C97.3352 82.066 97.6178 80.6712 97.6178 79.7034C97.6178 73.4126 97.6743 67.0933 97.6178 60.8026C97.6178 59.9486 97.1939 59.0947 96.9679 58.2407C96.8266 57.7568 96.5723 57.2729 96.5723 56.789C96.5723 52.7185 96.6005 48.648 96.657 44.5775C96.657 44.1221 96.9679 43.6666 97.1091 43.2112C97.2787 43.2396 97.4765 43.2966 97.646 43.325V49.1034C97.7873 49.1034 97.9568 49.1319 98.0981 49.1319C98.1829 48.5626 98.2959 48.0218 98.2959 47.4809C98.3242 43.6381 98.2959 39.7954 98.3242 35.9526C98.3242 35.4402 98.4937 34.9278 98.5502 34.4155C98.748 34.387 98.9458 34.3585 99.1436 34.3301C99.3414 34.9278 99.737 35.5256 99.737 36.1234C99.7935 41.1332 99.7653 46.1715 99.8218 51.1814C99.8218 51.8361 100.048 52.6331 100.443 53.1455C101.461 54.4833 101.517 55.992 101.517 57.5576C101.517 62.7382 101.63 67.8904 101.489 73.071C101.489 74.4089 101.8 76.0598 100.133 77.113Z" fill="white"/>
<path d="M70.9156 66.894C69.8983 66.6378 68.9376 66.2108 67.9769 66.1823C63.5971 66.097 59.2173 66.1254 54.8376 66.1823C54.3572 66.1823 53.9051 66.8655 53.3965 67.1786C52.9726 67.4348 52.2945 67.8902 52.0402 67.7479C51.6446 67.4633 51.2773 66.8086 51.2773 66.3247C51.249 62.9943 51.3338 59.6923 51.3338 56.3619C51.3338 53.9424 51.3338 51.5229 51.3055 49.1033C51.3055 47.8793 51.249 46.7407 52.2097 45.6591C52.6053 45.2036 52.3793 44.1504 52.4075 43.3534C52.4358 42.6418 52.4075 41.9301 52.4075 41.1331H51.5598C51.5033 39.7383 51.362 38.372 51.3903 37.0057C51.4185 36.3225 51.7294 35.6394 51.9272 34.9277C52.2097 34.9277 52.5205 34.9277 52.8031 34.9277C52.9726 35.6109 53.34 36.2941 53.34 37.0057C53.3965 43.8658 53.3682 50.7258 53.3965 57.5859C53.3965 57.956 53.4813 58.326 53.5378 58.696C53.6791 58.696 53.8486 58.696 53.9899 58.6676V54.4548C54.1594 54.4548 54.329 54.4548 54.4985 54.4548V63.8197H65.5186C65.1795 63.1935 65.0099 62.6527 64.6709 62.2542C61.7604 59.2084 58.8218 56.2196 55.9113 53.1738C55.7135 52.9746 55.5723 52.7468 55.4027 52.5476C56.1656 51.0959 56.8438 50.982 57.861 52.0922C58.85 53.1738 59.9238 54.1701 60.8845 55.2802C61.6192 56.1057 62.2691 56.9881 63.0602 57.9844C63.1168 57.956 63.3145 57.8136 63.5689 57.6144C63.6254 58.2121 63.6819 58.696 63.7101 59.1799C63.7949 59.0946 63.9079 59.0092 63.9927 58.9238C65.349 60.2901 66.7053 61.6279 68.316 63.2789C69.7853 63.3928 71.1416 64.8445 70.9156 66.894Z" fill="white"/>
<path d="M96.1491 65.9831C96.0078 66.04 95.8666 66.1254 95.697 66.2108C94.2842 64.7876 92.8149 63.4212 91.4303 61.9695C89.2263 59.6639 87.0223 57.3582 84.8465 55.0241C83.9423 54.0562 83.9423 52.7184 84.8465 51.7506C86.118 50.3558 87.4461 48.9895 88.7177 47.5947C89.0002 47.2816 89.1698 46.8261 89.5088 46.2284H82.2752C82.2752 47.5378 82.2752 48.7618 82.2752 49.9857C82.3034 53.4016 82.3882 56.8174 82.3882 60.2332C82.3882 60.8879 82.1056 61.5426 81.9361 62.1972C81.7383 62.1972 81.5405 62.2257 81.3427 62.2542C81.1449 61.5995 80.7493 60.9448 80.7493 60.2616C80.721 57.2443 80.8058 54.1986 80.8623 51.1528C80.8623 50.6689 80.8058 50.1565 80.7776 49.6726C80.5798 49.6726 80.4102 49.6442 80.2124 49.6157C80.0994 50.7828 80.0146 51.9498 79.9016 53.1169C79.8168 53.1454 79.7038 53.1738 79.619 53.2023C79.4495 52.7469 79.1952 52.2914 79.1669 51.8075C79.1104 50.7258 79.1669 49.6157 79.1387 48.534C79.1104 47.5093 79.5908 46.2568 78.0084 45.8299C77.8106 45.7729 77.5281 45.0613 77.6411 44.919C78.0367 44.4066 78.5735 43.638 79.0822 43.6096C81.6818 43.4673 84.3096 43.5526 86.9375 43.8088C85.6094 43.8658 84.2531 43.9227 82.9251 43.9796C82.9251 44.1219 82.8968 44.2927 82.8968 44.4351C83.3489 44.492 83.7728 44.6343 84.1966 44.6343C87.0223 44.6628 89.8479 44.6628 92.6736 44.6912C93.1257 44.6912 93.606 44.9474 94.0581 45.0898C93.8604 45.5737 93.7473 46.1714 93.4082 46.5415C91.6281 48.4771 89.7914 50.3558 87.9265 52.206C87.3613 52.7469 87.1918 53.1454 87.7004 53.857C88.4068 54.7963 88.9437 55.8495 89.6219 56.9597C89.6219 56.9597 89.8479 56.7035 89.9044 56.6466C90.2152 57.1589 90.5543 57.6998 90.8934 58.2691C91.4585 58.8099 91.9954 59.3792 92.5605 59.92C92.9279 60.3186 93.3235 60.6886 93.6908 61.0871C94.2559 61.6564 94.8211 62.2257 95.3862 62.795C95.6123 63.8482 95.8666 64.9014 96.1491 65.9831Z" fill="white"/>
<path d="M59.1047 45.0617C59.1047 45.0901 59.1047 45.0901 59.1047 45.0617C59.0762 45.0617 59.0762 45.0617 59.0762 45.0332C59.0762 45.0617 59.0762 45.0617 59.1047 45.0617C59.1047 45.0617 59.0762 45.0617 59.1047 45.0617Z" fill="white"/>
<path d="M83.9701 65.073C83.9136 65.4999 83.0659 66.0977 82.5573 66.1262C80.1555 66.24 77.7537 66.2116 75.3519 66.1546C74.928 66.1546 74.3912 65.8984 74.0803 65.5853C69.5028 60.974 64.9535 56.3057 60.4042 51.6659C59.2174 50.4419 57.9741 49.2464 56.8156 48.0224C56.5895 47.7947 56.4482 47.14 56.5613 47.0546C57.3524 46.3714 58.2284 45.7737 59.0478 45.1474C59.1326 45.2328 59.2174 45.3467 59.3022 45.4605C59.4717 45.6598 59.613 45.8306 59.7825 45.8306C64.2471 45.8875 68.7116 45.8591 73.1761 45.8591C73.3739 44.4643 73.5717 43.1549 73.826 41.5039C75.6627 43.4111 74.2216 45.489 75.1258 47.3108H60.2911C60.1216 48.6202 60.0933 49.5026 61.3084 50.4135C63.145 51.8083 64.7274 53.6015 66.3663 55.2525C66.7054 55.5941 66.8749 56.1065 67.3553 56.2488C68.0334 56.7042 68.7964 57.1027 69.3897 57.672C71.2829 59.4938 73.1196 61.401 75.0411 63.1943C75.4649 63.5928 76.1996 63.8774 76.8212 63.9059C78.6862 63.9913 80.5793 63.9628 82.4725 63.9344C83.3768 63.849 84.0549 64.2759 83.9701 65.073Z" fill="white"/>
<path d="M127.513 63.5063C127.513 63.9902 127.118 64.5879 126.722 64.9295C126.553 65.0718 125.903 64.6164 125.479 64.4171C125.055 64.2463 124.631 63.9048 124.207 63.9048C122.173 63.8478 120.167 63.8763 118.16 63.8763C117.991 62.7662 118.895 61.6276 119.941 61.5991C121.664 61.5706 123.416 61.5991 125.281 61.5991V51.3232H117.934C117.934 53.6574 117.991 55.963 117.906 58.2687C117.878 59.1796 117.624 60.1474 117.171 60.9159C116.889 61.3998 116.041 61.5137 115.25 61.8837V54.1413C115.335 54.1413 115.448 54.1128 115.533 54.1128C115.617 54.8813 115.674 55.6784 115.787 56.6177C116.719 55.1945 116.55 51.7502 115.646 50.7255C115.448 50.5262 115.25 49.9854 115.335 49.9569C115.759 49.6438 116.211 49.2168 116.663 49.2168C119.149 49.1599 121.664 49.2453 124.151 49.1883C124.688 49.1883 125.225 48.8183 125.761 48.619C126.101 48.4767 126.666 48.0782 126.75 48.1921C127.089 48.5052 127.457 49.0176 127.429 49.4161C127.372 50.4693 127.146 51.494 126.976 52.5472L127.033 52.5188L127.005 52.5472C126.779 52.7749 126.383 52.9742 126.383 53.2019C126.355 55.0237 126.383 56.8454 126.468 58.6672C126.468 58.8949 126.807 59.0942 127.005 59.3219C127.005 59.3219 127.033 59.3504 127.033 59.3788L126.976 59.3504C127.005 59.9766 128.192 60.432 127.146 61.3429C126.863 61.5422 127.542 62.7662 127.513 63.5063Z" fill="white"/>
<path d="M109.062 78.4512C108.073 78.0527 107.254 77.9673 106.886 77.5119C105.276 75.5478 102.139 74.3523 103.524 70.5664C105.304 72.3882 107.056 74.0676 108.61 75.8894C109.005 76.3448 108.892 77.2557 109.062 78.4512Z" fill="white"/>
<path d="M76.0292 53.4306C75.4076 53.6584 74.7859 54.0569 74.136 54.1138C72.7232 54.1992 71.3104 54.2561 69.9258 54.0853C69.3324 54.0284 68.3434 53.3453 68.3717 53.0037C68.4282 52.1497 69.2194 51.922 70.0953 51.9789C71.5082 52.0643 72.921 52.0074 74.3056 52.1213C74.8707 52.1782 75.4358 52.5198 76.001 52.7475C76.001 52.9467 76.001 53.2029 76.0292 53.4306Z" fill="white"/>
<path d="M186.767 49.3042C186.569 49.5604 186.371 49.8166 186.145 50.0727C184.563 51.8376 182.952 53.5739 181.398 55.3672C180.551 56.3635 179.816 57.4452 178.968 58.4415C178.573 58.9254 178.036 59.1816 177.838 58.2137C179.505 56.2212 181.144 54.1717 182.868 52.2076C183.659 51.2967 184.563 50.4712 185.382 49.6173C185.524 49.5604 185.693 49.475 185.835 49.3896C186.089 49.2757 186.343 49.1334 186.597 49.0195C186.654 49.1049 186.71 49.1903 186.767 49.3042Z" fill="white"/>
<path d="M155.317 48.5352C155.12 49.1329 154.894 49.7307 154.696 50.3285C153.594 51.4101 152.492 52.4633 151.39 53.545C151.107 53.7158 150.825 53.915 150.485 54.1143C150.259 52.8903 152.661 49.9584 155.317 48.5352Z" fill="white"/>
<path d="M127.4 75.7471C127.174 75.7756 126.807 75.8325 126.439 75.8894C124.546 73.9538 122.653 72.0466 120.76 70.1395C121.099 69.314 121.438 69.4279 122.003 70.0256C123.755 71.9328 125.563 73.8115 127.4 75.7471Z" fill="white"/>
<path d="M114.092 47.8792C112.82 49.1601 111.492 50.3557 110.164 51.6081V50.1564C111.436 48.8755 112.707 47.5661 113.979 46.2852C114.968 46.7691 114.572 47.3953 114.092 47.8792Z" fill="white"/>
<path d="M180.07 70.6523C180.07 70.6523 180.099 70.6808 180.127 70.6808L180.07 70.6523Z" fill="white"/>
<path d="M188.068 70.1406C187.22 71.3077 183.49 71.6493 181.202 71.08C181.06 71.0515 180.919 70.9946 180.778 70.9661C180.721 70.9376 180.636 70.9092 180.58 70.9092C180.439 70.8523 180.326 70.8238 180.213 70.7669C180.184 70.7384 180.128 70.7384 180.1 70.7099C180.241 70.5107 180.382 70.1976 180.552 70.1976C183.038 70.1406 185.497 70.1406 188.068 70.1406Z" fill="white"/>
<path d="M115.138 68.4602C114.799 69.2857 114.431 69.2003 113.923 68.574C112.934 67.407 111.86 66.2684 110.814 65.1013C111.012 65.0728 111.38 65.0159 111.719 64.959C112.877 66.1545 114.007 67.3216 115.138 68.4602Z" fill="white"/>
<path d="M48.4798 63.8496V63.9065L48.4513 63.8781C48.4227 63.8781 48.4513 63.8496 48.4798 63.8496Z" fill="white"/>
<path d="M48.4805 72.9297V63.9062C48.6783 64.0486 48.9891 64.1909 48.9891 64.3332C49.0173 67.2082 49.0173 70.0547 49.0173 72.9297C48.8195 72.9297 48.65 72.9297 48.4805 72.9297Z" fill="white"/>
<path d="M59.0762 45.0625H59.2175C59.1892 45.0625 59.1609 45.0625 59.1327 45.091C59.1044 45.0625 59.0762 45.0625 59.0762 45.0625Z" fill="white"/>
<path d="M65.971 44.6358V45.0628C63.7105 45.0628 61.45 45.0628 59.1895 45.0628C59.9241 44.9204 60.6305 44.6927 61.3652 44.6642C62.9193 44.5788 64.4452 44.6358 65.971 44.6358Z" fill="white"/>
<path d="M127.005 52.4629V52.5768C127.005 52.5483 126.977 52.5198 126.977 52.5198L127.005 52.4629Z" fill="white"/>
<path d="M126.977 59.2941L127.005 59.2656V59.351L126.977 59.2941C126.977 59.2941 126.977 59.3226 126.977 59.2941Z" fill="white"/>
<path d="M127.514 58.7246C127.514 58.8954 127.231 59.0662 127.033 59.2655C127.033 57.0452 127.033 54.8249 127.033 52.5762C127.203 52.8608 127.429 53.117 127.457 53.4017C127.485 55.195 127.514 56.9598 127.514 58.7246Z" fill="white"/>
<path d="M92.5324 59.9207C91.9672 59.3799 91.4304 58.8106 90.8652 58.2698C90.8935 57.9282 90.9218 57.5581 90.95 57.0742C91.6564 57.7289 92.3346 58.2413 92.8432 58.8675C92.9845 59.0098 92.6454 59.5507 92.5324 59.9207Z" fill="white"/>
<path d="M95.3575 62.7656C94.7924 62.1963 94.2272 61.627 93.6621 61.0577C93.6904 60.7161 93.7186 60.3461 93.7469 59.9761C93.8599 59.8622 93.9729 59.7768 94.1142 59.6914C94.6228 60.3176 95.1315 60.9723 95.6401 61.5986C96.0074 62.0825 96.29 62.5948 95.3575 62.7656Z" fill="white"/>
<path d="M32.6268 39.9375V40.5068C32.6268 40.3075 32.5986 40.1368 32.5703 39.9375H32.6268Z" fill="white"/>
<path d="M32.5996 45.0898C32.6279 45.0898 32.6279 45.0898 32.6561 45.0898V45.1468L32.5996 45.0898Z" fill="white"/>
<path d="M32.966 44.9757C32.966 45.0042 32.7682 45.0326 32.627 45.0611C32.627 43.5525 32.627 42.0438 32.627 40.5352C32.7682 42.0153 32.8813 43.4955 32.966 44.9757Z" fill="white"/>
<path d="M164.896 61.6272C164.868 61.6272 164.868 61.6272 164.896 61.6272C164.868 61.5988 164.868 61.5988 164.84 61.5988L164.868 61.5703V61.6272H164.896Z" fill="white"/>
<path d="M165.406 65.5286C165.236 65.5286 165.067 65.5571 164.869 65.5571V61.6289C165.067 61.7712 165.378 61.8851 165.378 62.0274C165.434 63.1945 165.406 64.3616 165.406 65.5286Z" fill="white"/>
<path d="M32.6551 45.062V45.119C32.6551 45.119 32.6268 45.119 32.5986 45.119C32.4573 45.119 32.2595 45.0905 32.2595 45.062C32.203 43.3826 32.1465 41.6747 32.1465 39.9953C32.1465 39.9953 32.429 39.9668 32.5986 39.9668C32.6268 39.9668 32.6268 39.9668 32.6551 39.9668V40.5361C32.6268 42.0447 32.6268 43.5534 32.6551 45.062Z" fill="white"/>
</g>
<defs>
<clipPath id="clip0_1800_1095">
<rect width="200" height="120" fill="white" transform="translate(0.5)"/>
</clipPath>
</defs>
</svg>
