<svg width="201" height="120" viewBox="0 0 201 120" fill="none" xmlns="http://www.w3.org/2000/svg">
<g clip-path="url(#clip0_1800_1077)">
<path d="M36.5905 52.4615C33.329 47.0115 28.2866 44.501 21.9568 44.973C12.2154 45.7026 5.60667 55.6371 8.58918 64.928C8.61064 65.0138 8.65355 65.0996 8.69647 65.164C8.7823 65.3142 8.91104 65.4644 9.01832 65.6146C9.03978 65.6575 9.08269 65.7004 9.10415 65.7219C9.12561 65.7648 9.14706 65.7863 9.18998 65.8292C10.3487 64.3916 11.4644 62.954 12.6231 61.5378C14.6615 59.0488 16.7214 56.6027 18.8456 54.0708C21.4848 57.225 24.0596 60.3147 26.6774 63.4689C27.364 62.6321 27.9862 61.924 28.63 61.1301C30.9902 63.941 33.2432 66.6875 35.582 69.4769C34.6593 69.7773 34.1229 69.5841 33.608 68.9404C32.3205 67.3097 30.9688 65.7434 29.6384 64.1555C29.3595 63.8337 29.0805 63.5118 28.587 62.954V69.6485H11.0353C12.2154 71.3007 13.3097 72.3092 15.4125 72.2233C20.369 72.0302 25.3685 71.9659 30.325 72.2448C33.093 72.395 34.7666 71.3222 36.097 69.1765C36.1828 69.0263 36.2901 68.8761 36.3974 68.7259C39.573 63.3187 39.809 57.8257 36.5905 52.4615ZM18.867 52.1397C17.8371 52.1611 16.9574 51.2814 16.9145 50.2515C16.893 49.2001 17.7084 48.3418 18.7598 48.2989C19.8755 48.256 20.7553 49.1142 20.7553 50.2085C20.7553 51.2385 19.897 52.1397 18.867 52.1397ZM28.63 58.8128C26.5057 58.8128 24.7462 57.0104 24.7892 54.9076C24.8106 52.7619 26.5701 51.0668 28.7158 51.1097C30.8615 51.1312 32.5351 52.8907 32.5137 55.0578C32.4493 57.1177 30.7113 58.8128 28.63 58.8128ZM9.18998 65.8292L9.16852 65.8506L9.18998 65.8292Z" fill="white"/>
<path d="M63.5408 57.5686C63.1331 55.0796 61.6097 53.2772 59.1851 52.4404C56.0738 51.389 52.8553 52.0756 49.6582 51.8825V68.7262C51.7395 68.7262 53.7779 68.7262 55.7949 68.7262C56.4386 68.7262 57.0823 68.6833 57.7046 68.576C60.9445 67.9752 63.0688 66.0012 63.5837 62.7612C63.8412 61.0661 63.8198 59.2637 63.5408 57.5686ZM60.0219 63.8125C58.3268 66.7951 55.4301 66.1084 52.6622 66.1728V54.4573C55.1297 54.5217 57.7045 53.8994 59.5928 56.1739C61.0304 57.9333 61.2449 61.6669 60.0219 63.8125Z" fill="white"/>
<path d="M190.351 51.1963V57.8908C190.201 57.8479 190.115 57.8479 190.093 57.805C187.647 54.8011 183.291 55.316 181.704 58.8564C180.652 61.1738 180.674 63.5984 181.725 65.9372C182.755 68.2331 185.072 69.4132 187.476 68.7266C188.527 68.4262 189.471 67.6752 190.458 67.1173V68.7266H193.162V51.1963H190.351ZM190.286 63.3195C189.943 65.3364 188.784 66.4951 187.111 66.4736C185.416 66.4522 184.15 65.1647 184.021 63.1263C183.957 62.1608 184.107 61.1308 184.407 60.2082C184.815 58.9208 185.952 58.2342 187.197 58.2556C188.506 58.2985 189.428 58.9852 189.922 60.1653C190.201 60.8519 190.286 61.6029 190.415 62.1179C190.372 62.6757 190.329 62.9976 190.286 63.3195Z" fill="white"/>
<path d="M146.535 59.6711C146.492 58.212 145.698 57.0962 144.347 56.474C142.308 55.5299 140.248 55.5299 138.231 56.4954C136.944 57.1177 136.129 58.1476 136.021 59.8213C137.202 59.6281 138.425 60.3362 139.261 58.8342C139.755 57.9545 141.6 57.8472 142.63 58.3836C143.553 58.8771 143.832 59.7354 143.467 61.1087C142.737 61.1516 141.986 61.1301 141.257 61.2374C140.012 61.4091 138.768 61.5378 137.588 61.9026C136.257 62.3103 135.464 63.3402 135.378 64.7778C135.292 66.2583 135.85 67.4385 137.137 68.2109C139.09 69.391 141.793 68.9619 143.295 67.2454C143.403 67.1166 143.553 67.0093 143.832 66.7518V68.6615H146.557C146.557 65.5932 146.6 62.6321 146.535 59.6711ZM139.476 66.43C138.982 66.2583 138.468 65.5073 138.36 64.9709C138.21 64.1126 138.918 63.5762 139.691 63.426C140.935 63.2114 142.222 63.1471 143.531 62.9969C144.239 65.5288 141.901 67.2453 139.476 66.43Z" fill="white"/>
<path d="M165.181 59.6067C165.138 58.7055 164.473 57.6327 163.765 56.989C161.877 55.2939 158.014 55.4226 156.083 57.0748C155.268 57.7614 154.753 58.5983 154.753 59.8213C155.375 59.8213 155.912 59.8857 156.448 59.7999C156.834 59.7355 157.349 59.5853 157.564 59.2849C158.358 58.255 159.667 57.8044 160.997 58.255C162.07 58.6197 162.434 59.3707 162.263 61.1087C161.512 61.1516 160.804 61.1302 160.096 61.2375C158.765 61.4306 157.349 61.4949 156.126 61.9885C153.68 62.954 153.315 66.194 155.354 67.8677C157.156 69.3482 160.224 69.1551 161.812 67.4385C161.984 67.2454 162.156 67.0523 162.477 66.709V68.6401H165.224C165.267 65.5932 165.374 62.5893 165.181 59.6067ZM158.186 66.43C157.692 66.2584 157.156 65.5288 157.049 64.971C156.899 64.1341 157.585 63.5763 158.379 63.4261C159.624 63.2115 160.911 63.1471 162.22 62.9969C162.949 65.6361 160.482 67.2239 158.186 66.43Z" fill="white"/>
<path d="M103.75 63.0621C103.75 62.5257 103.771 62.118 103.75 61.6888C103.621 58.3201 101.583 56.0457 98.536 55.8311C95.0385 55.5951 92.5709 57.5047 92.0131 60.9378C91.9058 61.603 91.9058 62.2896 91.9272 62.9763C92.0345 65.2507 92.8499 67.2033 94.9956 68.2547C97.27 69.3704 99.5873 69.2202 101.754 67.8684C102.763 67.2247 103.428 66.3021 103.6 65.0576C101.604 64.8216 101.54 64.8216 100.21 65.9802C99.3084 66.7527 97.5919 66.9029 96.4546 66.3021C95.3389 65.7013 94.781 64.5855 94.9312 63.0835H103.75V63.0621ZM97.6777 58.0841C99.3942 57.9553 100.574 59.0067 100.853 61.088H94.9527C94.9527 59.3929 96.0684 58.2128 97.6777 58.0841Z" fill="white"/>
<path d="M77.3591 63.0827C77.3591 62.439 77.3806 61.924 77.3591 61.3876C77.166 58.2763 75.1705 56.0877 72.2738 55.8517C68.8836 55.5727 66.4161 57.2893 65.7295 60.5078C65.5578 61.3017 65.5149 62.1386 65.5363 62.9539C65.6436 65.2284 66.4375 67.1809 68.6047 68.2323C70.8362 69.3266 73.1106 69.2193 75.2563 67.9105C76.3292 67.2668 77.0158 66.3227 77.2304 64.8636C76.179 65.1854 75.1061 64.3915 74.2693 65.4429C73.3896 66.5801 71.7803 66.9449 70.3856 66.4085C69.0767 65.8935 68.4116 64.7348 68.5189 63.0612H77.3591V63.0827ZM71.3083 58.0832C73.0248 57.9545 74.2049 59.0058 74.4839 61.0872H68.5832C68.5618 59.4135 69.6775 58.2119 71.3083 58.0832Z" fill="white"/>
<path d="M116.99 68.6834H114.179C114.179 67.9324 114.179 67.2028 114.179 66.4519C114.157 64.5207 114.222 62.5896 114.114 60.6799C114.029 59.1565 113.256 58.4484 111.84 58.3197C110.402 58.1909 109.265 58.8776 108.879 60.2293C108.707 60.8087 108.686 61.4309 108.664 62.0317C108.643 64.2418 108.664 66.4304 108.664 68.6834H105.811V56.0667H108.514V58.2553C109.63 56.41 111.089 55.7878 112.87 55.8521C115.058 55.938 116.775 57.2039 116.925 59.3711C117.118 62.4394 116.99 65.5292 116.99 68.6834Z" fill="white"/>
<path d="M178.978 68.6832H176.146C176.146 68.2112 176.146 67.7606 176.146 67.31C176.124 65.1214 176.167 62.9542 176.081 60.7656C176.017 59.2207 175.287 58.4912 173.893 58.3195C172.391 58.1479 171.232 58.856 170.824 60.2292C170.674 60.7656 170.631 61.345 170.631 61.9243C170.61 64.1344 170.631 66.3444 170.631 68.6403H167.756V56.088H170.438V57.8475C171.833 56.0451 173.614 55.5731 175.673 55.9378C177.497 56.2597 178.828 57.5042 178.913 59.4353C179.107 62.5036 178.978 65.572 178.978 68.6832Z" fill="white"/>
<path d="M25.9271 64.371C24.8542 65.6584 23.8243 66.9458 22.7514 68.1688C22.5369 68.4049 22.0434 68.4692 21.7001 68.4692C18.3099 68.4907 14.9197 68.4907 11.508 68.4907C10.0489 68.4907 9.12629 67.4178 9.19066 65.8729C9.4696 65.8944 9.74854 65.9588 10.006 65.9588C12.9027 65.9588 15.7779 65.9588 18.8248 65.9588V55.874C21.3138 58.8351 23.5883 61.5816 25.9271 64.371Z" fill="white"/>
<path d="M90.5766 64.306C90.3834 65.9796 89.6968 67.2027 88.3665 68.018C84.3755 70.507 79.376 68.1039 78.8825 63.4477C78.7752 62.5036 78.8396 61.5166 79.0113 60.5725C79.891 56.2596 84.8905 54.3071 88.5167 56.8604C89.7183 57.6972 90.3834 58.8774 90.5551 60.5081C89.9972 60.5081 89.5681 60.4866 89.1604 60.5081C88.3665 60.5725 87.8515 60.4652 87.4438 59.564C86.5427 57.6543 83.5816 57.6543 82.4873 59.5425C81.4359 61.3664 81.4574 63.319 82.4873 65.1643C83.0452 66.1942 84.0322 66.6019 85.2123 66.516C86.3281 66.4302 87.1649 65.9367 87.6584 64.8853C87.8086 64.6064 88.2378 64.3489 88.5811 64.2845C89.2248 64.2416 89.8685 64.306 90.5766 64.306Z" fill="white"/>
<path d="M123.277 58.2338C123.277 60.6584 123.213 62.9758 123.299 65.2717C123.363 66.6235 124.522 66.5162 125.573 66.5376V68.8121C124.479 68.7477 123.406 68.7906 122.398 68.576C120.981 68.2971 120.381 67.3101 120.338 65.4863C120.295 63.4908 120.316 61.4953 120.316 59.4783C120.316 59.0921 120.316 58.7059 120.316 58.2767C119.715 58.2338 119.222 58.2124 118.643 58.1694V56.0452C119.158 56.0237 119.651 55.9808 120.252 55.9379V53.2129H123.191V55.9379H125.573V58.2338H123.277V58.2338Z" fill="white"/>
<path d="M151.965 51.1748H149.176V68.6622H151.965V51.1748Z" fill="white"/>
<path d="M134.542 55.9381V58.4915C134.22 58.47 133.92 58.4271 133.62 58.4271C131.903 58.3842 130.809 59.3283 130.744 61.0234C130.68 63.1691 130.723 65.3148 130.701 67.4605C130.701 67.8467 130.701 68.2329 130.701 68.6835H127.869V56.0668H130.616V58.0409C131.495 56.2599 132.74 55.6162 134.542 55.9381Z" fill="white"/>
<path d="M31.4831 73.3398C27.6852 76.5584 19.2097 76.5584 15.1973 73.3398H31.4831Z" fill="white"/>
</g>
<defs>
<clipPath id="clip0_1800_1077">
<rect width="200" height="120" fill="white" transform="translate(0.5)"/>
</clipPath>
</defs>
</svg>
