<svg width="201" height="120" viewBox="0 0 201 120" fill="none" xmlns="http://www.w3.org/2000/svg">
<g clip-path="url(#clip0_1807_1954)">
<path d="M90.8337 42.2656V76.999C81.4004 83.599 69.2671 88.5323 60.4004 95.8323V89.999C68.6004 84.6323 77.2671 79.6656 85.8337 74.2656V50.8323C78.7671 55.299 71.4671 58.8323 64.7337 63.299V71.199L60.4004 73.3323V59.799L90.8337 42.2656Z" fill="white"/>
<path d="M56.7991 59.7995V77.9995C56.7991 80.4995 56.7991 82.9661 56.7991 85.3661V95.3661L26.2324 76.8661V42.1328L31.1658 45.0661V74.1328L52.2991 87.0661V62.7661L45.2658 58.7328V53.1661L56.7991 59.7995Z" fill="white"/>
<path d="M88.8992 39.7996L83.9992 42.7329L78.9659 39.9663L58.6659 28.9663L38.1659 39.9663L58.6659 51.6996L60.1992 50.7996L61.7659 49.9663L65.2659 47.9663L70.3992 50.5663L68.1659 51.8663L60.0659 56.5663L58.5326 57.4329C48.3992 51.5663 38.3326 45.6996 28.1992 39.8663C38.3992 34.1996 48.1326 28.7996 58.4326 23.5996C67.2326 27.6329 75.2992 32.5329 83.7659 37.1663C85.5326 38.0329 87.1992 38.8996 88.8992 39.7996Z" fill="white"/>
<path d="M112.399 55.3668H118.066C117.966 55.7668 117.799 56.1335 117.599 56.4668C117.433 56.7668 117.199 57.0668 116.999 57.3335C116.766 57.6001 116.533 57.8668 116.233 58.1001C114.999 59.0668 113.466 59.5668 111.899 59.5335C110.533 59.5668 109.166 59.3001 107.933 58.7001C106.799 57.9668 105.899 56.9668 105.299 55.7668C104.666 54.7001 104.299 53.4668 104.299 52.2001C104.333 51.0335 104.666 49.8668 105.299 48.9001C105.933 47.7668 106.866 46.8668 108.033 46.3001C109.099 45.7001 110.299 45.4001 111.533 45.3335C112.766 45.3001 113.966 45.5335 115.099 46.0335C116.266 46.5335 117.299 47.2668 118.199 48.1335L118.766 48.7335L121.366 46.2335L120.766 45.6335C119.499 44.4001 118.066 43.4335 116.466 42.7001C115.699 42.4335 114.933 42.2001 114.133 42.1001C113.333 41.9335 112.533 41.8668 111.699 41.8668C109.733 41.8335 107.799 42.3335 106.099 43.2668C104.466 44.1335 103.066 45.4001 102.099 47.0001C101.133 48.6001 100.633 50.4335 100.633 52.3001C100.633 54.7668 101.499 57.1668 103.133 59.0335C104.166 60.2668 105.499 61.2668 106.966 61.9668C108.533 62.6001 110.199 62.9001 111.899 62.8668C113.233 62.9668 114.599 62.7668 115.833 62.3001C117.099 61.8335 118.233 61.1001 119.199 60.1335C120.166 59.2001 120.899 58.0335 121.366 56.8001C121.833 55.5335 122.033 54.2001 121.966 52.8668V52.0335H112.433V55.3668H112.399Z" fill="white"/>
<path d="M131.666 42.5L122.166 62.5667H125.833L128.766 56.4667H135.699L138.633 62.5667H142.366L132.999 42.5H131.666ZM134.299 53.1H130.499L132.399 49.0667L134.299 53.1Z" fill="white"/>
<path d="M147.267 59.2333V42.5H143.834V62.6H154.367V62.5333V59.2333H147.267V59.2333Z" fill="white"/>
<path d="M165.3 42.5H163.9L154.434 62.5667H158.234L161.167 56.4667H168.167L171.1 62.5667H174.834L165.3 42.5ZM166.5 53.1H162.667L164.6 49.0667L166.5 53.1Z" fill="white"/>
<path d="M124.666 73.0337V73.3671C124.699 74.0337 124.599 74.7004 124.366 75.3337C124.133 75.9671 123.766 76.5337 123.299 77.0337C122.833 77.5004 122.266 77.9004 121.633 78.1337C120.999 78.3671 120.333 78.4671 119.666 78.4337C118.799 78.4671 117.966 78.3004 117.166 77.9671C116.433 77.6337 115.766 77.1671 115.233 76.5671C114.433 75.5671 114.066 74.3337 114.133 73.0671C114.133 72.1337 114.399 71.2337 114.866 70.4337C115.333 69.6337 115.999 68.9671 116.833 68.5004C117.666 68.0337 118.633 67.7671 119.599 67.8004C119.999 67.7671 120.433 67.7671 120.833 67.8004C121.233 67.9004 121.633 68.0004 121.999 68.1671C122.799 68.5004 123.533 69.0004 124.166 69.6337L124.333 69.7671L123.233 70.8004V70.6671C122.766 70.1671 122.166 69.7671 121.533 69.5337C120.999 69.2671 120.399 69.1337 119.766 69.1337C119.033 69.1337 118.333 69.3004 117.699 69.6671C117.066 70.0004 116.566 70.5004 116.199 71.1004C115.833 71.6671 115.666 72.3004 115.633 72.9671C115.633 73.6671 115.833 74.3337 116.199 74.9337C116.566 75.5337 117.099 76.0671 117.733 76.4004C118.399 76.7671 119.133 76.9337 119.866 76.9337C120.599 76.9671 121.333 76.7671 121.966 76.3337C122.133 76.2337 122.266 76.0671 122.399 75.9337C122.533 75.7671 122.633 75.6004 122.733 75.4337C122.899 75.1671 122.999 74.9004 123.066 74.6004H119.933V73.2004L124.666 73.0337Z" fill="white"/>
<path d="M130.466 68.1328L135.166 78.1661H133.599L132.066 74.9995H128.233L126.733 78.1661H125.166L129.899 68.1328H130.466ZM131.499 73.6328L130.199 70.8995L128.899 73.6328H131.499Z" fill="white"/>
<path d="M146 68.1328L147.433 78.1661H146.066L145.2 71.8328L142.033 78.1661H141.533L138.333 71.7661L137.533 78.1661H136.066L137.533 68.1328H138L141.766 75.7328L145.5 68.1328H146Z" fill="white"/>
<path d="M154.668 69.5661H150.134V72.0995H154.634V73.4995H150.134V76.7995H154.634V78.1661H148.768V68.1328H154.634L154.668 69.5661Z" fill="white"/>
<path d="M160.967 73.9335C161.267 74.4001 161.467 74.9668 161.467 75.5001C161.467 75.8668 161.4 76.2335 161.234 76.5668C161.067 76.9001 160.867 77.2001 160.6 77.4668C160.334 77.7335 160 77.9668 159.634 78.1001C159.267 78.2335 158.9 78.3335 158.5 78.3335C157.9 78.3335 157.3 78.1668 156.8 77.8001C156.2 77.3668 155.734 76.8001 155.434 76.1668V76.0001L156.634 75.2668V75.4668C156.834 75.9001 157.134 76.3001 157.5 76.6001C157.767 76.8001 158.067 76.9001 158.4 76.9335C158.667 76.9335 158.967 76.8668 159.234 76.7668C159.434 76.6335 159.634 76.5001 159.8 76.3001C159.934 76.1001 159.967 75.8335 159.967 75.6001C159.967 75.3001 159.867 75.0001 159.667 74.7668C159.2 74.2001 158.634 73.7335 158.034 73.3668C157.467 72.9668 156.934 72.5335 156.467 72.0335C156.134 71.5668 155.934 71.0001 155.934 70.4335C155.934 70.0001 156.034 69.5668 156.267 69.1668C156.367 68.9668 156.5 68.8001 156.634 68.6668L157.2 68.3001C157.6 68.0668 158.034 67.9668 158.5 67.9668C158.967 67.9668 159.467 68.0668 159.867 68.3335C160.4 68.6668 160.834 69.1001 161.2 69.6335V69.8335L160.1 70.6668V70.5001C159.867 70.1668 159.567 69.8668 159.267 69.6001C159.034 69.4668 158.8 69.4335 158.534 69.4335C158.4 69.4335 158.234 69.4335 158.1 69.5001C157.967 69.5668 157.834 69.6335 157.734 69.7335C157.634 69.8335 157.534 69.9335 157.5 70.0335C157.434 70.1668 157.434 70.3001 157.434 70.4335C157.4 70.6001 157.4 70.8001 157.434 70.9668C157.567 71.1668 157.7 71.3668 157.867 71.5335C157.967 71.6335 158.067 71.7335 158.2 71.8001L159.1 72.4668C159.8 72.8001 160.434 73.3335 160.967 73.9335Z" fill="white"/>
</g>
<defs>
<clipPath id="clip0_1807_1954">
<rect width="200" height="120" fill="white" transform="translate(0.5)"/>
</clipPath>
</defs>
</svg>
