<svg width="201" height="120" viewBox="0 0 201 120" fill="none" xmlns="http://www.w3.org/2000/svg">
<g clip-path="url(#clip0_1800_995)">
<path d="M12.7148 38.5625H24.5093V54.9905H44.0544V38.5625H55.8488V81.1067H44.0544V64.5103H24.5935V81.191H12.7991V38.5625H12.7148Z" fill="white"/>
<path d="M74.4686 46.7344H94.6034L97.7205 38.5625H110.273L93.0027 81.1067H76.0693L58.7988 38.5625H71.2672L74.4686 46.7344ZM77.6699 55.3275L84.4096 73.0191H84.4939L91.2335 55.3275H77.6699Z" fill="white"/>
<path d="M114.064 38.5625H135.631C139.422 38.5625 142.54 39.1522 144.983 40.2474C147.426 41.3426 149.195 43.1118 150.29 45.4707C151.133 47.4083 151.554 49.683 151.554 52.2104C151.554 54.5692 151.133 56.7596 150.29 58.6973C148.1 63.5836 143.214 66.0267 135.631 66.0267H125.943V81.191H114.149V38.5625H114.064ZM132.767 57.5178C134.536 57.5178 135.884 57.3494 136.895 56.9281C137.906 56.5069 138.664 55.9172 139.001 54.9905C139.338 54.3165 139.507 53.3898 139.507 52.3788C139.507 51.7891 139.507 51.2836 139.422 50.8624C139.338 50.4412 139.254 50.02 139.086 49.683C138.664 48.8405 137.906 48.1665 136.895 47.8296C135.884 47.4926 134.452 47.3241 132.683 47.3241H126.027V57.6021H132.767V57.5178Z" fill="white"/>
<path d="M155.344 38.5625H188.284V47.7453H167.138V55.2432H188.031V64.089H167.138V72.0082H188.284V81.191H155.344V38.5625Z" fill="white"/>
</g>
<defs>
<clipPath id="clip0_1800_995">
<rect width="200" height="120" fill="white" transform="translate(0.5)"/>
</clipPath>
</defs>
</svg>
