<svg width="201" height="120" viewBox="0 0 201 120" fill="none" xmlns="http://www.w3.org/2000/svg">
<g clip-path="url(#clip0_1807_1968)">
<path d="M61.8376 75.1639C68.124 86.1203 74.6799 97.436 81.7747 109.919C75.129 109.919 69.2915 110.009 63.5439 109.829C62.7356 109.829 61.5681 109.021 61.1191 108.213C52.0486 92.4068 43.1577 76.511 34.177 60.6152C34.0872 60.4355 34.177 60.0763 34.177 58.9088C39.5654 58.9088 44.9538 58.9986 50.3423 58.9088C57.7064 58.7292 63.2745 53.3408 63.9929 45.9766C64.7114 38.1634 60.0414 31.3381 52.8569 29.9012C51.4199 29.6318 49.8932 29.7216 48.3665 29.7216C38.7572 29.7216 29.2376 29.8114 19.6283 29.6318C18.1016 29.6318 16.036 28.3745 15.138 27.1172C13.1622 24.5128 11.7253 21.5491 10.1088 18.5855C8.31263 15.1729 9.92915 12.2092 13.701 12.2092C26.9925 12.1194 40.3737 11.5806 53.6651 12.3888C66.2381 13.0175 74.8595 20.4715 79.5295 32.1464C84.2893 44.1805 82.1339 55.4962 73.7819 65.1953C70.459 68.9672 66.0585 71.6614 61.8376 75.1639Z" fill="white"/>
<path d="M187.657 109.829C171.043 109.919 154.518 109.829 137.545 109.829V12.209C143.472 22.3572 148.861 31.4277 154.069 40.588C154.698 41.7555 154.518 43.4618 154.518 44.9885C154.518 60.7945 154.518 76.6903 154.518 93.0352C162.96 93.0352 171.133 93.2148 179.305 92.9454C183.167 92.8556 185.861 93.4842 187.388 97.4357C188.196 99.5911 189.813 101.567 190.98 103.632C192.597 106.776 191.07 109.829 187.657 109.829Z" fill="white"/>
<path d="M131.888 109.739C125.242 109.739 119.225 109.829 113.208 109.65C112.399 109.65 111.322 108.302 110.783 107.315C102.072 92.3168 93.3604 77.319 84.9185 62.1417C84.1102 60.7047 84.2899 58.1003 85.1879 56.6634C93.3604 42.5637 101.802 28.6437 110.244 14.6338C110.873 13.5561 112.04 12.209 113.028 12.209C118.955 11.9396 124.883 12.1192 131.798 12.1192C128.026 18.5853 124.793 24.2431 121.47 29.8112C116.171 38.702 110.963 47.5929 105.394 56.3042C103.598 59.0882 103.958 61.064 105.484 63.5786C113.836 77.9477 122.099 92.3168 130.361 106.686C130.81 107.404 131.079 108.213 131.888 109.739Z" fill="white"/>
</g>
<defs>
<clipPath id="clip0_1807_1968">
<rect width="200" height="120" fill="white" transform="translate(0.5)"/>
</clipPath>
</defs>
</svg>
