<svg width="201" height="120" viewBox="0 0 201 120" fill="none" xmlns="http://www.w3.org/2000/svg">
<g clip-path="url(#clip0_1800_1062)">
<g clip-path="url(#clip1_1800_1062)">
<path d="M102.456 45.1584H105.456V44.4151L104.702 43.665H100.962L100.209 44.4151V50.3773L100.962 51.1206H104.702L105.456 50.3773V49.6339H102.456V48.1407H105.456V46.6543H102.456V45.1584Z" fill="white"/>
<path d="M104.951 37H100.717V41.2162H104.951V37Z" fill="#3BBFF0"/>
<path d="M96.7158 43.665V46.653H94.4686V43.665H92.9754L92.2227 44.4151V50.3773L92.9754 51.1206H94.4686V48.1394H96.7158V51.1206H98.2158L98.9618 50.3773V44.4151L98.2158 43.665H96.7158Z" fill="white"/>
<path d="M84.9884 43.665L84.2344 44.4151V45.1584H86.4816V50.3759L87.2343 51.1191H87.9816L88.7276 50.3759V45.1584H90.9735V44.4151L90.2262 43.665H84.9884Z" fill="white"/>
<path d="M84.3613 53.6895V83.5178H105.329L108.322 80.5368V56.6774L105.329 53.6962H84.3613V53.6895ZM93.3478 59.6584H99.341V77.5572H93.3478V59.6584Z" fill="white"/>
<path d="M111.316 53.6895V83.5178H132.284L135.277 80.5368V71.5868L132.284 68.6058L135.277 65.6246V56.6761L132.284 53.6949H111.316V53.6895ZM120.303 71.5881H126.296V77.5572H120.303V71.5881ZM120.303 65.6192V59.657H126.296V65.6192H120.303Z" fill="white"/>
<path d="M141.27 53.6895L138.277 56.6706V80.5301L141.27 83.5111H159.243L162.237 80.5301V56.6706L159.243 53.6895H141.27ZM147.257 59.6584H153.25V77.5572H147.257V59.6584Z" fill="white"/>
<path d="M189.186 68.6064L194.842 62.9725L200.499 68.6064L194.842 74.2404L189.186 68.6064Z" fill="#3BBFF0"/>
<path d="M180.205 53.6895V62.6382L177.212 65.6192L174.218 62.6382V53.6895H168.224L165.23 56.6774V65.6192L168.224 68.6071L165.23 71.5881V80.5368L168.224 83.5178H174.218V74.5692L177.212 71.5881L180.205 74.5692V83.5178H186.2L189.193 80.5368V71.5881L186.2 68.6071L189.193 65.6192V56.6774L186.2 53.6895H180.205Z" fill="white"/>
<path d="M72.3881 53.6888V62.6376L63.4015 53.6888H57.4151L54.4219 56.6767V80.5362L57.4151 83.5172H63.4015V65.6186L72.3881 74.5673V83.5159H78.3813L81.3746 80.5349V56.6754L78.3813 53.6875L72.3881 53.6888Z" fill="white"/>
<path d="M48.4213 53.7549H30.4483L27.4551 56.736V80.5955L30.4483 83.5765H36.4416V71.6468H42.4281V83.5833H48.4146L51.4078 80.6023V56.7428L48.4213 53.7549ZM39.4348 66.7806L35.6078 62.9699L39.4348 59.159L43.2618 62.9699L39.4348 66.7806Z" fill="white"/>
<path d="M3.49324 53.6895L0.5 56.6774V68.6071L3.49324 71.5881H15.473V77.5489H9.48649V74.5679H0.5V80.5368L3.49324 83.5178H21.4662L24.4595 80.5368V68.6071L21.4662 65.6192H9.48649V59.657H15.473V62.6382H24.4595V56.6774L21.4662 53.6895H3.49324Z" fill="white"/>
</g>
</g>
<defs>
<clipPath id="clip0_1800_1062">
<rect width="200" height="120" fill="white" transform="translate(0.5)"/>
</clipPath>
<clipPath id="clip1_1800_1062">
<rect width="200" height="46.5838" fill="white" transform="translate(0.5 37)"/>
</clipPath>
</defs>
</svg>
