<svg width="201" height="120" viewBox="0 0 201 120" fill="none" xmlns="http://www.w3.org/2000/svg">
<g clip-path="url(#clip0_1800_981)">
<path d="M96.8911 72.109C96.8911 72.3603 96.3885 72.827 96.1013 72.827C92.1164 72.8629 88.1315 72.8629 84.1106 72.8629V70.9602C85.7261 70.6012 85.7979 69.2729 85.7979 67.9087C85.7979 62.6313 85.7979 57.3181 85.7979 52.0408C85.7979 50.7843 85.3312 49.9227 84.1824 49.3842C83.8593 49.2406 83.5721 48.738 83.5003 48.3431C83.4644 48.1277 83.8593 47.6969 84.1465 47.5892C87.4135 46.5121 90.6804 45.5069 93.9473 44.5017C94.0191 44.4658 94.1268 44.5376 94.414 44.6094V46.189C94.414 53.4409 94.4499 60.6568 94.3781 67.9087C94.3781 69.4165 94.6653 70.5294 96.2449 71.0679C96.568 71.1756 96.8911 71.75 96.8911 72.109Z" fill="white"/>
<path d="M82.7471 70.9614V72.8282H72.4437C72.1924 72.1102 71.9411 71.464 71.7257 70.7818C71.6539 70.6023 71.618 70.351 71.6539 70.1715C72.7668 66.761 72.0488 63.2787 72.0847 59.8323C72.0847 59.222 71.259 58.6117 70.7923 58.0373C70.4692 57.6424 70.1102 57.2475 69.7871 56.8885C70.182 56.5654 70.541 56.0987 71.0077 55.9192C73.8438 54.9499 76.7158 54.0524 79.5879 53.119C79.8751 53.0113 80.1982 53.0113 80.7726 52.9395V62.7043C80.7726 64.4634 80.8085 66.2225 80.7726 67.9816C80.7367 69.4535 81.0957 70.6382 82.7471 70.9614Z" fill="white"/>
<path d="M69.5355 70.4228C69.2842 71.1768 69.0329 71.9666 68.7098 72.9C65.5506 72.9 62.2119 72.9359 58.8732 72.8641C58.5501 72.8641 58.0115 72.4333 58.0115 72.1461C57.9756 71.7871 58.2629 71.2127 58.586 71.0691C59.8425 70.5306 60.022 69.5971 59.7348 68.4483C59.1604 66.1148 58.586 63.7813 57.9757 61.4478C57.868 61.017 57.6884 60.4785 57.3653 60.2272C56.8627 59.8323 56.1088 59.3656 55.5703 59.4733C55.0677 59.581 54.3856 60.2631 54.2779 60.8375C54.0266 61.9863 54.0266 63.2069 53.9907 64.4275C53.9548 65.7917 53.9907 67.12 53.9907 68.4842C53.9907 69.5971 54.4215 70.4228 55.4985 70.9255C55.9293 71.1409 56.1806 71.7512 56.5037 72.182C56.0011 72.4333 55.5344 72.9359 55.0318 72.9359C51.729 73.0077 48.4262 72.9718 45.1234 72.9C44.7285 72.9 44.3336 72.4692 43.9028 72.2179C44.1541 71.823 44.3336 71.2845 44.6926 71.105C45.7337 70.5665 45.985 69.7048 46.0209 68.6637C46.0568 66.3302 46.0568 64.0326 46.0209 61.6991C46.0209 60.5503 45.626 59.5451 44.4054 59.2579C43.1489 58.9707 42.3591 59.7246 41.8206 60.6939C41.5334 61.2324 41.3539 61.9145 41.3539 62.5607C41.2821 64.6429 41.318 66.7251 41.3539 68.8432C41.3539 69.8125 41.677 70.6024 42.6822 71.105C43.0412 71.2845 43.4002 71.9666 43.3284 72.2538C43.2207 72.5769 42.6104 72.9359 42.1796 72.9718C38.6613 73.0077 35.1072 73.0077 31.589 72.9359C31.1941 72.9359 30.7992 72.4692 30.4043 72.2179C30.6556 71.823 30.8351 71.2486 31.1941 71.0691C32.3429 70.5306 32.7019 69.6689 32.7019 68.5201C32.666 65.7917 32.666 63.0274 32.7019 60.299C32.7019 59.222 32.2352 58.5758 31.3377 58.0732C30.9428 57.8578 30.4761 57.3911 30.4761 57.0321C30.4761 56.709 31.0146 56.2423 31.4095 56.0987C34.5687 55.0217 37.7279 54.0165 41.1026 52.9395C41.1744 54.6986 41.2821 56.1705 41.3539 57.6424C41.4975 57.6783 41.677 57.7142 41.8206 57.7501C42.395 57.1039 42.9335 56.4577 43.5079 55.8474C45.4824 53.6575 48.3544 52.8318 50.8315 53.7652C51.9444 54.196 52.8778 54.8422 53.2368 56.0987C53.3445 56.4936 53.7035 56.8167 53.9907 57.1757C54.3138 56.8885 54.7087 56.6013 54.96 56.2782C57.1858 53.119 61.2426 52.365 63.8633 54.8422C64.8685 55.7756 65.5865 57.1757 65.9814 58.504C66.9866 61.735 67.7046 65.0378 68.6021 68.3047C68.8175 68.9868 69.2483 69.7048 69.5355 70.4228Z" fill="white"/>
<path d="M145.069 67.2634C144.89 69.8841 143.382 71.5714 141.049 72.433C139.469 73.0074 137.746 73.2587 136.31 73.5818C133.94 73.1869 131.894 72.8997 129.848 72.5048C128.699 72.2894 127.766 72.3971 127.119 73.51C126.581 74.4434 125.899 74.4075 125.324 73.4382C124.14 71.4637 122.919 69.4892 121.806 67.4429C121.555 66.9762 121.698 66.2582 121.663 65.6838C122.237 65.8992 122.991 65.9351 123.422 66.33C126.042 68.7353 128.914 70.5662 132.612 70.7457C134.479 70.8175 135.771 70.3508 135.879 69.3097C136.023 67.6583 134.694 67.2275 133.545 66.7967C131.176 65.8633 128.735 65.1094 126.401 64.1042C125.181 63.5656 123.996 62.8476 123.027 61.9142C120.298 59.2576 121.519 55.2727 125.36 53.9085C128.448 52.7956 131.535 52.9392 134.658 53.729C136.023 54.088 137.171 54.1957 137.854 52.5443C138.177 51.6827 139.182 51.6468 139.72 52.4725C140.977 54.4111 142.162 56.4215 143.31 58.4319C143.454 58.6832 143.31 59.114 143.31 59.4371C142.915 59.4012 142.485 59.5089 142.162 59.3294C140.977 58.6473 139.864 57.7139 138.607 57.1754C137.136 56.5292 135.556 56.1343 133.976 55.7753C133.33 55.6317 132.54 55.6317 131.93 55.883C131.391 56.0984 130.781 56.7087 130.673 57.2472C130.602 57.6062 131.248 58.396 131.75 58.5755C133.581 59.2217 135.52 59.6166 137.351 60.2269C138.895 60.7295 140.402 61.3039 141.874 62.0219C143.992 63.063 145.213 64.7863 145.069 67.2634Z" fill="white"/>
<path d="M120.37 67.1198C119.904 67.1916 119.401 67.1557 119.006 67.3711C118.468 67.6224 118.037 68.0891 117.534 68.4122C114.196 70.6021 110.354 69.92 108.236 66.7608C107.41 65.5043 107.482 65.1812 108.918 64.6427C112.508 63.2785 116.134 61.9502 120.191 60.4423C119.222 58.8986 118.54 57.3908 117.498 56.2061C112.903 51.0724 103.713 51.9699 99.8356 57.8575C96.6404 62.7041 97.6815 68.8071 102.384 71.4996C107.159 74.2639 112.149 74.228 116.996 71.6791C118.288 70.997 119.293 69.7046 120.299 68.5917C120.55 68.3404 120.37 67.6224 120.37 67.1198ZM106.298 61.1962C106.118 60.4782 106.046 59.7602 105.939 59.1858C105.939 57.4267 106.764 56.1343 107.913 55.8112C109.026 55.524 110.247 56.2061 111.072 57.5703C111.216 57.8575 111.395 58.1447 111.503 58.4319C112.257 60.1192 112.149 60.4423 110.426 61.0885C109.6 61.4116 108.775 61.663 107.985 62.0579C107.016 62.5605 106.513 62.1297 106.298 61.1962Z" fill="white"/>
<path d="M195.33 67.1907C195.186 69.7037 193.75 71.4987 191.489 72.3603C189.837 73.0065 188.006 73.222 186.57 73.581C184.165 73.1861 182.155 72.9347 180.144 72.5398C178.924 72.3244 177.99 72.3603 177.308 73.581C176.805 74.5144 176.087 74.3349 175.585 73.5451C174.328 71.5346 173.108 69.5242 171.995 67.442C171.744 66.9753 171.959 66.2932 171.959 65.6829C172.497 65.8983 173.215 65.9701 173.61 66.3291C176.231 68.8062 179.175 70.6371 182.944 70.7807C184.201 70.8166 185.565 70.9243 186.14 69.4165C186.499 68.4113 185.601 67.4779 183.806 66.7599C180.898 65.647 177.954 64.6777 175.154 63.3135C172.39 61.9852 171.385 59.544 172.138 57.1387C172.713 55.4514 174.041 54.5538 175.585 53.9435C178.277 52.9024 181.006 52.8665 183.806 53.4768C184.488 53.6204 185.17 53.764 185.852 53.9076C186.822 54.0871 187.504 53.7999 187.97 52.8306C188.545 51.61 189.406 51.5382 190.124 52.6511C191.273 54.4461 192.386 56.2771 193.427 58.108C193.643 58.467 193.499 59.0055 193.535 59.5081C193.104 59.4004 192.602 59.4363 192.278 59.185C190.232 57.7131 188.078 56.4566 185.565 55.954C184.524 55.7386 183.411 55.6309 182.406 55.8104C181.832 55.9181 181.114 56.6002 180.97 57.1746C180.862 57.5336 181.616 58.3952 182.119 58.5747C183.95 59.2209 185.888 59.6158 187.719 60.2261C189.263 60.7287 190.771 61.3031 192.243 62.0211C194.289 63.0981 195.438 64.8213 195.33 67.1907Z" fill="white"/>
<path d="M26.6003 71.716C24.9489 72.8289 22.6512 73.4392 20.0664 73.511C18.0919 73.1879 16.1174 72.9366 14.1788 72.5417C12.9582 72.3263 11.9171 72.2904 11.1991 73.5828C10.7683 74.3726 10.0144 74.3726 9.54767 73.6187C8.21936 71.5006 6.92696 69.3466 5.70635 67.1566C5.49095 66.7976 5.77815 66.1514 5.81405 65.6488C6.35255 65.8283 6.99876 65.8642 7.35776 66.2232C9.97847 68.7362 12.9223 70.5313 16.6559 70.7826C18.5945 70.8903 19.7074 70.4236 19.9228 69.3825C20.1382 68.3413 19.3484 67.4797 17.5175 66.7617C14.7173 65.6847 11.8812 64.6436 9.11687 63.4589C7.57316 62.7768 6.35255 61.5921 5.88585 59.833C5.20375 57.2841 6.63976 54.9506 9.43997 53.9454C12.4197 52.9043 15.4353 52.9043 18.4868 53.6941C19.9587 54.089 21.287 54.3403 22.0409 52.4376C22.364 51.6119 23.2974 51.7196 23.7282 52.3658C25.0566 54.3403 26.2413 56.3507 27.426 58.397C27.5696 58.6483 27.426 59.0791 27.426 59.4381C26.9952 59.4022 26.5285 59.474 26.1695 59.2945C24.3745 58.3611 22.6871 57.1764 20.8203 56.4225C19.5638 55.9199 18.1278 55.8481 16.7277 55.7404C15.7584 55.6686 14.825 56.0635 14.6814 57.2123C14.5737 58.3252 15.5071 58.5406 16.2969 58.7919C18.9535 59.6176 21.6101 60.3715 24.2668 61.2331C24.9489 61.4485 25.631 61.8434 26.2413 62.2024C30.1185 64.4282 30.2262 69.2388 26.6003 71.716Z" fill="white"/>
<path d="M166.396 72.3614C164.744 73.0077 162.913 73.2231 161.477 73.5821C159.072 73.2231 157.062 72.9359 155.051 72.5409C153.867 72.3255 152.897 72.3255 152.215 73.5821C151.713 74.4796 150.995 74.3719 150.492 73.5462C149.235 71.4998 147.979 69.4176 146.83 67.2995C146.615 66.8687 146.83 66.2225 146.83 65.684C147.369 65.8635 148.015 65.8635 148.374 66.2225C150.923 68.6637 153.759 70.4946 157.385 70.7459C158.031 70.7818 158.749 70.8895 159.323 70.6382C159.934 70.3869 160.759 69.8843 160.903 69.3817C161.011 68.8432 160.544 67.838 160.077 67.5867C158.749 66.8328 157.277 66.3661 155.877 65.7917C153.867 64.966 151.784 64.2839 149.882 63.2787C147.153 61.8068 146.184 59.4374 147.081 57.0321C147.692 55.3807 149.02 54.4831 150.6 53.9087C153.508 52.8676 156.415 52.9394 159.359 53.6574C160.867 54.0523 162.411 54.5191 163.129 52.4009C163.201 52.2214 164.529 52.1496 164.708 52.4009C166.073 54.3754 167.293 56.4577 168.514 58.5399C168.657 58.7912 168.478 59.222 168.442 59.5451C168.011 59.4733 167.545 59.5092 167.186 59.2938C165.391 58.3604 163.667 57.2475 161.836 56.4218C160.795 55.9551 159.611 55.8833 158.426 55.7756C157.277 55.6679 155.985 55.7397 155.841 57.2116C155.662 58.6117 156.99 58.6835 157.923 58.9707C160.58 59.8323 163.272 60.5503 165.857 61.4837C167.76 62.1658 169.447 63.3146 170.022 65.4327C170.776 68.2329 169.304 71.2485 166.396 72.3614Z" fill="white"/>
<path d="M80.9515 45.543C80.3053 44.2506 79.0488 44.0352 77.3974 44.0352C74.8844 44.2506 72.4432 45.3276 70.72 47.697C69.3199 49.6715 70.1815 51.7178 72.5868 51.9691C75.6024 52.3281 78.1513 51.1793 80.1617 48.9535C80.9874 48.0201 81.6336 46.9072 80.9515 45.543ZM80.4848 47.5534C79.4078 50.1023 74.8844 52.2204 72.2278 51.4665C70.5405 50.9998 70.0379 49.4561 71.1149 47.9483C72.7304 45.7584 74.9921 44.7173 77.6128 44.5019C78.1154 44.5737 78.5821 44.5737 79.0129 44.6814C80.4848 45.0404 81.0592 46.1892 80.4848 47.5534Z" fill="white"/>
<path d="M80.4863 47.5554C79.4093 50.1043 74.8858 52.2224 72.2292 51.4685C70.5419 51.0018 70.0393 49.4581 71.1163 47.9503C72.7318 45.7604 74.9935 44.7193 77.6142 44.5039C78.1169 44.5757 78.5836 44.5757 79.0144 44.6834C80.4863 45.0424 81.0607 46.1912 80.4863 47.5554Z" fill="white"/>
<path d="M71.6547 72.0024C71.6906 72.3255 71.0803 72.7204 70.47 73.3307C70.0033 72.6486 69.4648 72.1819 69.5725 71.8947C69.6802 71.4998 70.2905 70.9972 70.6495 71.0331C71.0444 71.0331 71.6188 71.6075 71.6547 72.0024Z" fill="white"/>
</g>
<defs>
<clipPath id="clip0_1800_981">
<rect width="200" height="120" fill="white" transform="translate(0.5)"/>
</clipPath>
</defs>
</svg>
