<svg width="201" height="120" viewBox="0 0 201 120" fill="none" xmlns="http://www.w3.org/2000/svg">
<g clip-path="url(#clip0_1800_888)">
<path d="M121.905 43.4767C121.382 43.9124 120.684 44.348 119.899 44.8708C114.839 48.443 107.424 50.9697 97.8275 50.9697H97.2169C87.6206 50.9697 80.2053 48.5302 75.1454 44.8708C74.3603 44.348 73.6624 43.8253 73.1389 43.4767C73.6624 43.0411 74.3603 42.6055 75.1454 41.9956C80.2053 38.4233 87.6206 35.8966 97.2169 35.8966H97.8275C107.424 35.8966 114.839 38.3362 119.899 41.9956C120.684 42.6055 121.295 43.1282 121.905 43.4767ZM171.457 13.8533C171.457 13.8533 167.095 10.5425 153.311 5.48905C141.185 0.958405 132.025 0 132.025 0V26.1383C132.025 29.7977 131.066 33.1957 128.187 37.0293C117.892 33.2828 108.122 30.9303 97.4786 30.9303C86.8354 30.9303 77.0647 33.1957 66.7705 37.0293C63.9788 33.1957 62.932 29.7977 62.932 26.1383V0C62.932 0 53.6847 0.958405 41.5584 5.40192C27.8619 10.5425 23.5 13.8533 23.5 13.8533C24.1107 25.7027 34.4921 36.2451 50.8058 43.5639C34.4921 50.7955 24.0234 61.3379 23.5 73.1873C23.5 73.1873 27.8619 76.4982 41.6457 81.5516C53.7719 85.9951 62.932 86.9535 62.932 86.9535L62.8447 60.8152C62.8447 57.1558 63.8916 53.7578 66.6832 49.9242C76.9774 53.6707 86.7482 55.936 97.3913 55.936C108.034 55.936 117.805 53.6707 128.099 49.9242C130.891 53.7578 131.938 57.0687 131.938 60.8152V86.9535C131.938 86.9535 141.098 85.9951 153.224 81.5516C167.008 76.4982 171.37 73.1873 171.37 73.1873C170.759 61.3379 160.378 50.7955 144.064 43.4767C160.465 36.2451 170.846 25.7027 171.457 13.8533ZM176.343 70.0507C176.343 70.6606 175.994 71.2705 175.383 71.4447C174.772 71.7061 174.162 71.5319 173.725 71.0962C173.289 70.6606 173.115 69.9636 173.376 69.4408C173.638 68.8309 174.162 68.4824 174.772 68.4824C175.208 68.4824 175.557 68.6567 175.819 68.918C176.168 69.2666 176.343 69.6151 176.343 70.0507ZM176.691 70.0507C176.691 69.2666 176.255 68.6567 175.557 68.3081C174.859 68.0468 174.074 68.1339 173.551 68.7438C173.027 69.2666 172.853 70.0507 173.115 70.7477C173.376 71.4447 174.074 71.8804 174.859 71.8804C175.819 71.8804 176.691 71.0962 176.691 70.0507Z" fill="white"/>
<path d="M175.208 70.9225H175.557L175.033 70.1383C175.12 70.1383 175.295 70.0512 175.382 69.9641C175.469 69.8769 175.469 69.7027 175.469 69.6155C175.469 69.3542 175.295 69.0928 174.859 69.0928H174.248V70.8353H174.51V70.0512H174.684L175.208 70.9225ZM174.423 69.3542H174.684C174.946 69.3542 175.033 69.4413 175.033 69.6155C175.033 69.7898 174.946 69.8769 174.684 69.8769H174.423C174.423 69.964 174.423 69.3542 174.423 69.3542Z" fill="white"/>
</g>
<g clip-path="url(#clip1_1800_888)">
<path d="M84.1181 109.809C86.1788 109.809 87.2246 111.077 87.2246 112.853V113.932C87.2246 115.486 86.5515 116.511 85.2572 116.924L87.2246 119.968H84.2631L82.3371 116.977H80.1936L79.0649 114.841H83.7039C83.9214 114.873 84.1388 114.788 84.2941 114.63C84.4495 114.471 84.522 114.249 84.5012 114.027V113.128C84.5323 112.906 84.4495 112.684 84.2941 112.526C84.1388 112.367 83.9214 112.293 83.7039 112.314H78.7025V119.968H75.9688V109.809H84.1181Z" fill="white"/>
<path d="M114.304 109.809C116.365 109.809 117.411 111.077 117.411 112.853V113.932C117.411 115.486 116.738 116.511 115.443 116.924L117.411 119.968H114.439L112.513 116.977H110.369L109.241 114.841H113.88C114.097 114.873 114.315 114.788 114.47 114.63C114.625 114.471 114.698 114.249 114.677 114.027V113.128C114.708 112.906 114.625 112.684 114.47 112.526C114.315 112.367 114.097 112.293 113.88 112.314H108.878V119.968H106.145V109.809H114.304Z" fill="white"/>
<path d="M170.344 109.809C172.405 109.809 173.45 111.077 173.45 112.853V113.932C173.45 115.486 172.777 116.511 171.483 116.924L173.45 119.968H170.479L168.553 116.977H166.399L165.27 114.841H169.909C170.126 114.873 170.344 114.788 170.499 114.63C170.655 114.471 170.727 114.249 170.706 114.027V113.128C170.737 112.906 170.655 112.684 170.499 112.526C170.344 112.367 170.126 112.293 169.909 112.314H164.908V119.968H162.174V109.809H170.344Z" fill="white"/>
<path d="M34.7257 117.04C34.7982 117.843 34.5186 118.636 33.9594 119.197C33.4003 119.757 32.6236 120.053 31.8367 119.979H26.39C25.603 120.053 24.8367 119.768 24.2775 119.197C23.7184 118.626 23.4388 117.833 23.5113 117.04V109.809H26.2553V116.511C26.2139 116.765 26.2968 117.019 26.4728 117.199C26.6488 117.378 26.8973 117.463 27.1459 117.431H31.0911C31.3396 117.473 31.5985 117.389 31.7849 117.209C31.9713 117.029 32.0541 116.765 32.0231 116.511V109.809H34.7154L34.7257 117.04Z" fill="white"/>
<path d="M38.8462 109.808C39.395 109.724 39.9439 109.935 40.2959 110.369L44.0237 114.682L45.4216 116.49L45.3492 114.122V109.787H48.0829V119.979H45.9912C45.4424 120.063 44.8832 119.841 44.5311 119.397L40.793 115.084L39.2397 113.181L39.3536 115.56V119.989H36.6406V109.808H38.8462Z" fill="white"/>
<path d="M58.8839 116.532V113.255C58.915 113.001 58.8322 112.747 58.6561 112.568C58.4801 112.388 58.2316 112.303 57.9831 112.335H52.8573V119.989H50.1133V109.808H58.7493C59.5363 109.734 60.3026 110.02 60.8617 110.591C61.4209 111.162 61.7005 111.955 61.628 112.747V117.04C61.7005 117.843 61.4209 118.636 60.8617 119.207C60.3026 119.778 59.526 120.063 58.7493 119.989H54.5556L53.2508 117.452H57.9727C58.2212 117.484 58.4697 117.399 58.6458 117.22C58.8218 117.04 58.9047 116.786 58.8632 116.532" fill="white"/>
<path d="M74.2204 112.367H66.2367C66.185 112.367 66.1332 112.388 66.0918 112.43C66.0503 112.473 66.0296 112.526 66.0296 112.578V117.23C66.0296 117.346 66.1228 117.442 66.2367 117.442H74.2204V120H64.9527C64.4971 120.042 64.0518 119.873 63.7308 119.545C63.4098 119.218 63.2441 118.763 63.2856 118.298V111.5C63.2441 111.035 63.4098 110.58 63.7308 110.253C64.0518 109.925 64.4971 109.766 64.9527 109.808H74.2204V112.367ZM74.0754 115.813H67.4172L66.4231 113.889H73.0814L74.0754 115.813Z" fill="white"/>
<path d="M91.0469 119.99L96.2761 109.809H99.0616C99.8382 109.809 100.201 109.978 100.491 110.496L105.316 119.958H102.075L101.267 118.33H97.7362L96.6075 116.194H100.19L98.1607 112.145L94.2673 119.958L91.0469 119.99Z" fill="white"/>
<path d="M121.946 109.808C122.516 109.744 123.054 110.083 123.261 110.622L125.57 115.062L126.44 117.124L127.331 115.062L129.629 110.622C129.837 110.062 130.396 109.723 130.976 109.808H133.751V119.989H131.058V116.637L131.245 113.096L130.002 115.749L127.672 119.978H125.291L122.982 115.749L121.708 113.096L121.915 116.637V119.989H119.223V109.808H121.946Z" fill="white"/>
<path d="M138.411 109.808H144.479C145.255 109.734 146.032 110.02 146.591 110.591C147.14 111.162 147.419 111.944 147.347 112.747V117.04C147.419 117.843 147.14 118.636 146.581 119.207C146.022 119.778 145.245 120.063 144.468 119.989H138.4C137.613 120.063 136.837 119.778 136.278 119.207C135.718 118.636 135.439 117.843 135.511 117.04V112.747C135.439 111.944 135.718 111.151 136.278 110.591C136.837 110.03 137.613 109.734 138.4 109.808M143.681 117.452C143.93 117.484 144.178 117.399 144.354 117.22C144.53 117.04 144.613 116.786 144.582 116.532V113.255C144.613 113.001 144.53 112.747 144.354 112.568C144.178 112.388 143.93 112.303 143.681 112.335H139.156C138.908 112.293 138.659 112.377 138.483 112.557C138.307 112.737 138.224 112.991 138.255 113.244V116.522C138.224 116.775 138.307 117.029 138.483 117.209C138.659 117.389 138.908 117.473 139.156 117.442L143.681 117.452Z" fill="white"/>
<path d="M160.301 117.04C160.374 117.843 160.094 118.636 159.535 119.197C158.976 119.768 158.199 120.053 157.412 119.979H151.945C151.158 120.053 150.391 119.768 149.832 119.197C149.273 118.626 148.993 117.833 149.066 117.04V109.809H151.81V116.511C151.769 116.765 151.862 117.029 152.038 117.22C152.224 117.399 152.483 117.484 152.732 117.442H156.677C156.925 117.473 157.174 117.389 157.35 117.209C157.526 117.029 157.609 116.776 157.578 116.522V109.809H160.322L160.301 117.04Z" fill="white"/>
<path d="M176.526 118.975C176.526 119.313 176.329 119.62 176.019 119.746C175.718 119.873 175.366 119.799 175.128 119.567C174.89 119.324 174.828 118.975 174.952 118.658C175.076 118.351 175.377 118.14 175.708 118.14C176.153 118.15 176.526 118.52 176.526 118.975ZM176.692 118.975C176.692 118.562 176.454 118.192 176.081 118.034C175.708 117.875 175.283 117.96 174.993 118.256C174.714 118.541 174.621 118.985 174.776 119.366C174.931 119.746 175.294 119.99 175.698 119.99C176.246 119.979 176.692 119.535 176.692 118.975Z" fill="white"/>
<path d="M175.906 119.461H176.092L175.802 119.038C175.864 119.038 175.937 119.006 175.978 118.954C176.02 118.901 176.04 118.837 176.03 118.763C176.03 118.605 175.947 118.499 175.719 118.499H175.367V119.461H175.533V119.049H175.636L175.906 119.461ZM175.523 118.626H175.667C175.792 118.626 175.854 118.679 175.854 118.774C175.854 118.869 175.802 118.932 175.667 118.932H175.523V118.626Z" fill="white"/>
</g>
<defs>
<clipPath id="clip0_1800_888">
<rect width="153.191" height="87.0406" fill="white" transform="translate(23.5)"/>
</clipPath>
<clipPath id="clip1_1800_888">
<rect width="153.191" height="10.2128" fill="white" transform="translate(23.5 109.787)"/>
</clipPath>
</defs>
</svg>
