<svg width="308" height="320" viewBox="0 0 308 320" fill="none" xmlns="http://www.w3.org/2000/svg">
<g clip-path="url(#clip0_2884_6914)">
<path d="M77.1234 277.785H60.3385L59.5576 277.311C56.7651 275.375 54.4841 272.799 52.9092 269.8C51.3343 266.802 50.5117 263.469 50.5117 260.087C50.5117 256.705 51.3343 253.373 52.9092 250.375C54.4841 247.376 56.7651 244.799 59.5576 242.864L60.3437 242.395H77.1442V248.89H62.2859C60.6398 250.262 59.3159 251.976 58.4079 253.91C57.4999 255.844 57.0292 257.953 57.0292 260.087C57.0292 262.222 57.4999 264.33 58.4079 266.265C59.3159 268.199 60.6398 269.913 62.2859 271.285H77.1029L77.1234 277.785Z" fill="black"/>
<path d="M108.146 277.785C105.6 277.806 103.088 277.201 100.834 276.025C98.5793 274.849 96.6525 273.138 95.2245 271.045L94.7109 270.264V242.145H101.251V268.269C102.124 269.22 103.187 269.98 104.373 270.5C105.558 271.02 106.84 271.289 108.136 271.289C109.432 271.289 110.713 271.02 111.899 270.5C113.084 269.98 114.147 269.22 115.02 268.269V242.145H121.581V270.254L121.103 271.03C119.671 273.129 117.739 274.844 115.478 276.023C113.218 277.201 110.699 277.807 108.146 277.785Z" fill="black"/>
<path d="M248.984 242.15V255.493C248.098 256.464 247.018 257.239 245.812 257.77C244.607 258.3 243.303 258.574 241.984 258.574C240.665 258.574 239.361 258.3 238.155 257.77C236.95 257.239 235.869 256.464 234.984 255.493V242.15H228.443V257.499L228.916 258.279C231.174 261.585 234.631 263.896 238.565 264.729V277.694H245.105V264.8C249.152 264.019 252.721 261.676 255.031 258.284L255.509 257.509V242.15H248.984Z" fill="black"/>
<path d="M145.723 277.696V264.664H149.864L158.387 277.696H166.186L157.663 264.664H159.718L160.499 264.19C162.263 262.987 163.706 261.375 164.703 259.495C165.7 257.614 166.221 255.521 166.221 253.395C166.221 251.27 165.7 249.176 164.703 247.296C163.706 245.415 162.263 243.804 160.499 242.601L159.718 242.132H144.839H139.188V277.675L145.723 277.696ZM145.723 248.612H157.652C158.289 249.235 158.794 249.977 159.139 250.796C159.484 251.614 159.662 252.493 159.662 253.38C159.662 254.267 159.484 255.146 159.139 255.965C158.794 256.783 158.289 257.526 157.652 258.148H145.723V248.612Z" fill="black"/>
<path d="M190.353 277.696V264.664H194.495L203.018 277.696H210.822L202.293 264.664H204.349L205.13 264.19C206.894 262.987 208.337 261.376 209.334 259.495C210.331 257.614 210.852 255.521 210.852 253.396C210.852 251.27 210.331 249.177 209.334 247.296C208.337 245.415 206.894 243.804 205.13 242.601L204.349 242.132H189.47H183.818V277.676L190.353 277.696ZM190.353 248.612H202.283C202.92 249.235 203.425 249.977 203.77 250.796C204.115 251.614 204.293 252.493 204.293 253.38C204.293 254.268 204.115 255.146 203.77 255.965C203.425 256.783 202.92 257.526 202.283 258.148H190.353V248.612Z" fill="black"/>
<path d="M58.8021 93.5457C85.7234 70.5591 121.883 50.7972 133.001 44.3629C143.918 38.041 145.794 36.1636 151.882 21.3051C158.674 4.72727 162.157 -4.33977 151.635 2.05359C140.435 8.87047 120.86 25.3412 106.3 38.3985C87.5269 55.2365 71.5127 73.4215 57.1836 91.7444C55.1594 94.3313 56.5003 95.5102 58.8021 93.5457Z" fill="black"/>
<path d="M248.96 66.208C182.427 81.24 111.665 119.978 88.0315 137.188C77.6534 136.316 71.3648 134.346 71.3648 130.111C71.3648 122.677 105.71 102.558 137.4 87.5517C161.439 76.1578 181.142 66.5603 188.602 63.2896C195.62 60.2282 200.671 53.151 205.5 46.3494C215.174 32.7104 220.913 22.3066 211.285 25.3426C207.946 26.3937 179.031 38.8947 130.952 65.3152C66.6124 100.675 50.701 122.279 50.5262 132.606C50.3363 142.393 60.0155 147.123 73.6204 149.521C63.3963 159.547 56.5836 169.88 56.3831 180.187C55.9775 200.989 84.2195 208.556 130.104 204.122C176.734 199.612 235.797 181.732 235.797 158.226C235.797 139.137 198.842 138.198 149.484 138.413L116.392 138.989C116.392 138.989 136.038 128.565 155.264 120.963C183.393 109.824 215.041 102.981 222.644 100.889C234.6 97.6087 236.485 96.5574 246.042 83.577C255.516 70.7187 260.222 63.6771 248.96 66.2285V66.208ZM124.509 152.613C176.236 154.598 193.524 157.068 193.411 162.864C193.221 172.931 163.612 182.585 134.143 186.774C106.815 190.657 76.852 189.693 77.1139 176.207C77.2631 168.41 84.9591 159.904 96.1698 151.715C105.69 152.164 115.554 152.276 124.509 152.618" fill="black"/>
<path d="M39.3294 319.839C34.7054 319.839 34.6388 316.349 34.6388 315.002V308.65C34.6388 308.267 34.6081 307.757 35.43 307.757H37.814C38.5898 307.757 38.5434 308.298 38.5434 308.65V315.002C38.5434 315.452 38.6205 316.671 40.2954 316.671H44.2924C45.9365 316.671 46.0342 315.452 46.0342 315.002V308.65C46.0342 308.298 45.983 307.757 46.7587 307.757H49.1578C50.0313 307.757 49.9493 308.298 49.9493 308.65V315.002C49.9493 316.349 49.867 319.839 45.243 319.839H39.3294Z" fill="black"/>
<path d="M61.4079 319.069C59.7791 316.895 57.4569 314.156 55.0886 311.257V318.988C55.0886 319.324 55.1705 319.84 54.364 319.84H52.1394C51.338 319.84 51.4354 319.329 51.4354 318.988V308.65C51.4354 308.298 51.3995 307.757 52.1394 307.757H56.4756C57.7034 307.757 59.4401 310.201 60.5857 311.839C61.4693 313.074 63.0981 314.931 64.1822 316.319V308.665C64.1822 308.313 64.1358 307.772 64.9426 307.772H67.3574C68.1332 307.772 68.0816 308.313 68.0816 308.665V319.855H63.6376C62.687 319.855 62.2659 319.916 61.3976 319.085" fill="black"/>
<path d="M79.728 316.648C81.6753 316.648 81.5316 314.796 81.5316 313.949C81.5316 311.096 80.7247 310.984 79.4354 310.984H73.3162V316.648H79.728ZM69.5605 319.837V307.77H80.288C80.9508 307.77 85.3487 307.688 85.3487 312.28C85.3487 316.969 85.8626 319.837 80.3857 319.837H74.6007L73.3473 317.285V319.837H69.5605Z" fill="black"/>
<path d="M89.5722 307.851H99.4675C100.305 307.851 100.192 308.391 100.192 309.381C100.192 310.371 100.32 310.851 99.4675 310.851H91.6274C91.4167 310.851 90.7075 310.739 90.7075 311.478C90.7075 312.218 90.5638 312.499 91.3498 312.499H98.2653C98.2653 312.499 99.262 314.387 99.375 314.708C99.488 315.03 99.5239 315.269 98.9075 315.269H91.7609L90.6461 313.127V316.336C90.6461 317.071 91.3088 316.928 91.499 316.928H99.6215C100.428 316.928 100.367 317.484 100.367 318.397C100.367 319.311 100.428 319.928 99.6215 319.928H89.3461C88.4932 319.928 86.8184 319.673 86.8184 317.015V310.381C86.8184 309.693 87.1882 307.902 89.5568 307.902" fill="black"/>
<path d="M111.466 310.954H106.652C105.845 310.954 105.876 311.224 105.876 311.464V313.627H110.839C113.238 313.627 113.238 313.035 113.238 312.413C113.238 311.163 113.14 310.954 111.466 310.954ZM102.845 307.77H113.675C115.124 307.77 117.235 307.77 117.235 311.643C117.235 314.194 116.685 314.316 115.524 315.097C117.477 315.434 117.22 317.913 117.22 319.179C117.22 319.837 116.978 319.822 116.783 319.822H113.608C112.951 319.822 113.094 318.801 113.094 318.235C113.094 316.745 112.257 316.811 111.933 316.811H107.263C106.811 316.041 105.943 314.316 105.943 314.316V319.322C105.943 319.755 105.506 319.832 105.342 319.832H102.151C102.331 319.832 101.832 319.862 101.832 319.429V308.81C101.823 308.677 101.842 308.542 101.888 308.416C101.935 308.29 102.007 308.175 102.101 308.079C102.195 307.983 102.309 307.907 102.434 307.858C102.56 307.808 102.694 307.785 102.829 307.79" fill="black"/>
<path d="M134.583 311.195C134.409 311.502 132.718 314.537 132.59 314.813C132.508 314.941 132.59 314.986 132.765 314.986H136.484C136.695 314.986 136.741 314.941 136.68 314.813C136.551 314.537 134.938 311.502 134.778 311.18C134.772 311.159 134.759 311.142 134.741 311.129C134.724 311.117 134.703 311.11 134.681 311.11C134.659 311.11 134.638 311.117 134.621 311.129C134.603 311.142 134.59 311.159 134.583 311.18V311.195ZM135.873 307.838C136.664 307.838 137.414 308.19 138.277 309.802C138.837 310.956 142.768 318.012 143.595 319.497V319.91H139.485L138.308 317.798H133.345C133.345 317.798 132.508 315.895 132.266 315.369C131.958 315.879 130.314 318.941 129.749 319.91H125.639V319.655C126.476 318.089 132.194 307.863 132.194 307.863L135.873 307.838Z" fill="black"/>
<path d="M154.307 310.954H149.488C148.682 310.954 148.718 311.224 148.718 311.464V313.627H153.676C156.08 313.627 156.08 313.035 156.08 312.413C156.08 311.163 155.982 310.954 154.307 310.954ZM145.686 307.77H156.517C157.965 307.77 160.077 307.77 160.077 311.643C160.077 314.194 159.528 314.316 158.366 315.097C160.319 315.434 160.056 317.913 160.056 319.179C160.056 319.837 159.82 319.822 159.625 319.822H156.45C155.792 319.822 155.936 318.801 155.936 318.235C155.936 316.745 155.099 316.811 154.775 316.811H150.1C149.653 316.041 148.779 314.316 148.779 314.316V319.322C148.779 319.755 148.343 319.832 148.183 319.832H144.993C145.172 319.832 144.674 319.862 144.674 319.429V308.81C144.665 308.677 144.684 308.542 144.73 308.416C144.776 308.29 144.849 308.175 144.943 308.079C145.037 307.983 145.15 307.907 145.276 307.858C145.401 307.808 145.536 307.785 145.671 307.79" fill="black"/>
<path d="M169.55 319.839C168.749 318.308 166.509 314.19 164.993 311.466V318.992C164.993 319.323 165.039 319.839 164.269 319.839H162.075C161.253 319.839 161.32 319.328 161.32 318.992V308.649C161.32 308.297 161.274 307.772 162.075 307.772H165.861C166.426 307.772 167.233 307.644 168.132 309.435C168.81 310.874 170.244 313.853 171.215 315.435C172.37 313.49 173.423 311.487 174.369 309.435C175.258 307.644 176.044 307.772 176.676 307.772H180.447C181.218 307.772 181.141 308.282 181.141 308.649V318.992C181.141 319.323 181.254 319.839 180.447 319.839H178.238C177.432 319.839 177.498 319.328 177.498 318.992V311.466C175.957 314.19 173.743 318.333 172.905 319.839H169.55Z" fill="black"/>
<path d="M193.235 316.757C195.059 316.757 194.992 314.89 194.992 313.64C194.992 312.517 195.249 310.757 192.88 310.757H188.873C186.52 310.757 186.818 312.517 186.818 313.64C186.818 314.89 186.705 316.757 188.529 316.757H193.235ZM186.042 319.865C182.446 319.865 182.61 316.038 182.61 313.558C182.61 311.287 182.353 307.731 186.849 307.7H194.828C199.339 307.7 199.046 311.303 199.046 313.558C199.046 316.038 199.226 319.865 195.583 319.865H186.042Z" fill="black"/>
<path d="M205.031 319.839C200.407 319.839 200.34 316.349 200.34 315.002V308.65C200.34 308.267 200.309 307.757 201.126 307.757H203.515C204.286 307.757 204.239 308.298 204.239 308.65V315.002C204.239 315.452 204.317 316.671 205.997 316.671H209.988C211.633 316.671 211.73 315.452 211.73 315.002V308.65C211.73 308.298 211.684 307.757 212.454 307.757H214.859C215.727 307.757 215.645 308.298 215.645 308.65V315.002C215.645 316.349 215.568 319.839 210.944 319.839H205.031Z" fill="black"/>
<path d="M226.832 310.954H222.013C221.206 310.954 221.237 311.224 221.237 311.464V313.627H226.2C228.605 313.627 228.605 313.035 228.605 312.413C228.605 311.163 228.507 310.954 226.832 310.954ZM218.211 307.77H229.041C230.49 307.77 232.602 307.77 232.602 311.643C232.602 314.194 232.052 314.316 230.891 315.097C232.843 315.434 232.581 317.913 232.581 319.179C232.581 319.837 232.34 319.822 232.15 319.822H228.974C228.312 319.822 228.461 318.801 228.461 318.235C228.461 316.745 227.623 316.811 227.3 316.811H222.64C222.188 316.041 221.319 314.316 221.319 314.316V319.322C221.319 319.755 220.883 319.832 220.723 319.832H217.533C217.713 319.832 217.209 319.862 217.209 319.429V308.81C217.2 308.674 217.22 308.538 217.269 308.41C217.317 308.282 217.393 308.165 217.49 308.069C217.587 307.972 217.704 307.898 217.833 307.849C217.962 307.801 218.099 307.781 218.237 307.79" fill="black"/>
<path d="M234.907 318.212H235.344C235.57 318.212 235.611 318.145 235.611 318.048V318.023C235.611 317.895 235.57 317.824 235.344 317.824H234.907V318.212ZM234.578 319.146V317.799C234.578 317.599 234.578 317.549 234.794 317.549H235.482C235.619 317.549 235.749 317.602 235.846 317.698C235.942 317.794 235.996 317.924 235.996 318.059C235.996 318.334 235.873 318.569 235.595 318.569C235.683 318.732 235.806 318.972 235.899 319.12C235.991 319.268 235.683 319.396 235.632 319.345C235.431 319.054 235.303 318.804 235.169 318.605H234.927V319.207C234.927 319.37 234.789 319.38 234.712 319.38C234.635 319.38 234.588 319.258 234.588 319.156L234.578 319.146ZM235.205 319.62C235.363 319.618 235.519 319.585 235.664 319.522C235.809 319.46 235.94 319.37 236.05 319.258C236.16 319.145 236.246 319.012 236.305 318.867C236.363 318.721 236.392 318.565 236.389 318.408C236.387 318.252 236.354 318.097 236.291 317.953C236.228 317.809 236.138 317.679 236.024 317.569C235.911 317.46 235.777 317.374 235.631 317.316C235.484 317.258 235.327 317.23 235.169 317.232C234.857 317.234 234.557 317.353 234.329 317.565C234.102 317.776 233.963 318.066 233.941 318.375C233.939 318.536 233.969 318.696 234.031 318.845C234.092 318.994 234.183 319.129 234.298 319.242C234.413 319.355 234.55 319.445 234.701 319.504C234.851 319.564 235.012 319.593 235.174 319.59L235.205 319.62ZM233.623 318.375C233.639 317.969 233.812 317.585 234.104 317.301C234.396 317.016 234.786 316.853 235.195 316.844C235.401 316.839 235.605 316.874 235.797 316.949C235.989 317.023 236.164 317.135 236.311 317.278C236.459 317.421 236.576 317.591 236.656 317.78C236.736 317.968 236.777 318.171 236.777 318.375C236.775 318.8 236.603 319.206 236.299 319.505C235.996 319.804 235.586 319.972 235.159 319.972C234.952 319.968 234.748 319.924 234.558 319.841C234.369 319.759 234.197 319.64 234.054 319.492C233.911 319.343 233.799 319.168 233.724 318.976C233.649 318.785 233.613 318.581 233.618 318.375" fill="black"/>
<path d="M7.97024 317.934L7.34855 316.403H3.56207L2.95068 317.934H0.5L4.0964 309.77H6.93239L10.5288 317.934H7.97024ZM5.46304 311.668L4.28649 314.597H6.65496L5.46304 311.668Z" fill="black"/>
<path d="M21.4833 317.934L17.3115 312.974V317.934H15.0098V309.77H17.1522L21.3189 314.734V309.77H23.6206V317.934H21.4833Z" fill="black"/>
<path d="M245.41 317.934V309.77H249.685C250.582 309.706 251.479 309.882 252.284 310.28C252.561 310.437 252.789 310.667 252.943 310.944C253.097 311.221 253.172 311.535 253.158 311.852C253.163 312.243 253.037 312.625 252.8 312.938C252.563 313.251 252.228 313.477 251.848 313.581C252.933 313.921 253.475 314.569 253.471 315.525C253.488 315.875 253.412 316.222 253.252 316.534C253.091 316.846 252.852 317.11 252.556 317.301C251.747 317.759 250.82 317.972 249.89 317.913L245.41 317.934ZM249.638 312.938C250.45 312.938 250.856 312.678 250.856 312.158C250.86 312.054 250.834 311.952 250.782 311.861C250.73 311.772 250.655 311.697 250.563 311.647C250.248 311.517 249.907 311.461 249.566 311.484H247.645V312.964L249.638 312.938ZM249.685 316.24C250.071 316.269 250.459 316.204 250.815 316.051C250.927 315.983 251.017 315.885 251.075 315.769C251.133 315.653 251.157 315.522 251.144 315.393C251.154 315.26 251.128 315.127 251.067 315.008C251.006 314.889 250.914 314.789 250.8 314.719C250.451 314.558 250.068 314.488 249.685 314.515H247.63V316.24H249.685Z" fill="black"/>
<path d="M264.223 317.934L262.579 315.168H260.688V317.934H258.412V309.77H262.615C265.06 309.77 266.285 310.673 266.288 312.479C266.318 312.956 266.193 313.43 265.931 313.832C265.669 314.233 265.285 314.54 264.834 314.709L266.848 317.934H264.223ZM262.461 313.428C262.855 313.457 263.249 313.378 263.601 313.198C263.71 313.109 263.797 312.997 263.858 312.87C263.918 312.743 263.949 312.604 263.949 312.464C263.949 312.323 263.918 312.185 263.858 312.058C263.797 311.931 263.71 311.819 263.601 311.729C263.25 311.555 262.857 311.479 262.466 311.51H260.667V313.428H262.461Z" fill="black"/>
<path d="M277.997 317.934L277.375 316.403H273.589L272.977 317.934H270.521L274.118 309.77H276.954L280.55 317.934H277.997ZM275.485 311.668L274.298 314.597H276.671L275.485 311.668Z" fill="black"/>
<path d="M291.503 317.934L287.337 312.974V317.934H285.035V309.77H287.177L291.344 314.734V309.77H293.646V317.934H291.503Z" fill="black"/>
<path d="M298.99 317.934V309.77H302.859C304.503 309.77 305.748 310.11 306.594 310.79C307.03 311.168 307.371 311.641 307.593 312.172C307.814 312.704 307.908 313.278 307.868 313.851C307.899 314.424 307.794 314.995 307.563 315.52C307.33 316.045 306.978 316.508 306.532 316.872C305.642 317.583 304.38 317.937 302.746 317.934H298.99ZM302.802 316.015C304.534 316.015 305.402 315.285 305.402 313.842C305.402 312.397 304.57 311.688 302.905 311.688H301.364V316.015H302.802Z" fill="black"/>
</g>
<defs>
<clipPath id="clip0_2884_6914">
<rect width="307.368" height="320" fill="white" transform="translate(0.5)"/>
</clipPath>
</defs>
</svg>
