<svg width="57" height="60" viewBox="0 0 57 60" fill="none" xmlns="http://www.w3.org/2000/svg">
<g clip-path="url(#clip0_1945_558)">
<g filter="url(#filter0_f_1945_558)">
<path d="M14.1694 52.084H11.0653L10.9209 51.995C10.4045 51.6321 9.98267 51.149 9.69142 50.5868C9.40016 50.0246 9.24805 49.3998 9.24805 48.7656C9.24805 48.1315 9.40016 47.5068 9.69142 46.9445C9.98267 46.3823 10.4045 45.8991 10.9209 45.5363L11.0663 45.4482H14.1732V46.6662H11.4255C11.1211 46.9235 10.8762 47.2447 10.7083 47.6074C10.5404 47.9701 10.4533 48.3654 10.4533 48.7656C10.4533 49.1658 10.5404 49.5612 10.7083 49.9239C10.8762 50.2866 11.1211 50.6079 11.4255 50.8652H14.1656L14.1694 52.084Z" fill="#FFCA21"/>
<path d="M19.9064 52.084C19.4356 52.0878 18.971 51.9745 18.5542 51.754C18.1373 51.5335 17.7809 51.2127 17.5168 50.8201L17.4219 50.6738V45.4014H18.6314V50.2997C18.7928 50.4781 18.9894 50.6206 19.2086 50.718C19.4279 50.8155 19.6649 50.8659 19.9045 50.8659C20.1442 50.8659 20.3812 50.8155 20.6004 50.718C20.8197 50.6206 21.0162 50.4781 21.1777 50.2997V45.4014H22.391V50.6719L22.3027 50.8173C22.0378 51.2109 21.6805 51.5325 21.2624 51.7536C20.8444 51.9745 20.3786 52.0881 19.9064 52.084Z" fill="#FFCA21"/>
<path d="M45.9529 45.4023V47.9041C45.7891 48.0861 45.5893 48.2315 45.3663 48.3309C45.1434 48.4305 44.9023 48.4818 44.6584 48.4818C44.4145 48.4818 44.1733 48.4305 43.9503 48.3309C43.7274 48.2315 43.5276 48.0861 43.3638 47.9041V45.4023H42.1543V48.2801L42.2417 48.4265C42.6593 49.0463 43.2986 49.4796 44.0261 49.6358V52.0668H45.2356V49.6491C45.9839 49.5026 46.6441 49.0633 47.0712 48.4274L47.1595 48.282V45.4023H45.9529Z" fill="#FFCA21"/>
<path d="M26.857 52.0677V49.6243H27.6228L29.1991 52.0677H30.6414L29.0651 49.6243H29.4451L29.5895 49.5353C29.9159 49.3097 30.1827 49.0076 30.367 48.655C30.5514 48.3024 30.6478 47.9099 30.6478 47.5114C30.6478 47.1128 30.5514 46.7203 30.367 46.3677C30.1827 46.0151 29.9159 45.713 29.5895 45.4874L29.4451 45.3994H26.6936H25.6484V52.0639L26.857 52.0677ZM26.857 46.6145H29.0632C29.1809 46.7312 29.2743 46.8704 29.3381 47.0239C29.4019 47.1774 29.4348 47.3421 29.4348 47.5085C29.4348 47.6749 29.4019 47.8396 29.3381 47.9931C29.2743 48.1466 29.1809 48.2858 29.0632 48.4025H26.857V46.6145Z" fill="#FFCA21"/>
<path d="M35.1089 52.0677V49.6243H35.8748L37.451 52.0677H38.8943L37.317 49.6243H37.6971L37.8415 49.5353C38.1678 49.3097 38.4346 49.0076 38.619 48.655C38.8034 48.3024 38.8997 47.9099 38.8997 47.5114C38.8997 47.1128 38.8034 46.7203 38.619 46.3677C38.4346 46.0151 38.1678 45.713 37.8415 45.4874L37.6971 45.3994H34.9455H33.9004V52.0639L35.1089 52.0677ZM35.1089 46.6145H37.3151C37.4328 46.7312 37.5263 46.8704 37.5901 47.0239C37.6539 47.1774 37.6867 47.3421 37.6867 47.5085C37.6867 47.6749 37.6539 47.8396 37.5901 47.9931C37.5263 48.1466 37.4328 48.2858 37.3151 48.4025H35.1089V46.6145Z" fill="#FFCA21"/>
<path d="M10.7816 17.539C15.7602 13.229 22.4472 9.52362 24.5033 8.3172C26.5223 7.13184 26.8691 6.77982 27.995 3.99386C29.251 0.885508 29.8953 -0.814562 27.9494 0.384193C25.8781 1.66236 22.2582 4.75061 19.5655 7.19886C16.0938 10.356 13.1322 13.7657 10.4823 17.2012C10.108 17.6863 10.356 17.9073 10.7816 17.539Z" fill="#FFCA21"/>
<path d="M45.9471 12.413C33.6431 15.2315 20.557 22.4948 16.1864 25.7218C14.2672 25.5582 13.1042 25.1889 13.1042 24.3948C13.1042 23.0009 19.4558 19.2287 25.3162 16.415C29.7618 14.2786 33.4055 12.4791 34.7851 11.8658C36.0829 11.2918 37.0169 9.96484 37.9101 8.68954C39.6991 6.13222 40.7604 4.18152 38.9799 4.75076C38.3623 4.94784 33.015 7.29178 24.1238 12.2456C12.2254 18.8756 9.28284 22.9263 9.25051 24.8627C9.2154 26.6976 11.0054 27.5845 13.5214 28.0342C11.6306 29.9141 10.3707 31.8515 10.3336 33.784C10.2586 37.6845 15.4815 39.1033 23.967 38.2719C32.5903 37.4262 43.5129 34.0739 43.5129 29.6663C43.5129 26.0873 36.6787 25.9112 27.5509 25.9514L21.4311 26.0595C21.4311 26.0595 25.0644 24.105 28.6198 22.6795C33.8217 20.591 39.6744 19.308 41.0806 18.9158C43.2915 18.3006 43.6402 18.1035 45.4075 15.6697C47.1595 13.2588 48.0298 11.9385 45.9471 12.4169V12.413ZM22.9323 28.6139C32.4982 28.9861 35.6953 29.4492 35.6744 30.536C35.6393 32.4236 30.1637 34.2336 24.7138 35.0191C19.6601 35.7471 14.119 35.5664 14.1674 33.0378C14.195 31.5759 15.6182 29.9811 17.6914 28.4456C19.452 28.5297 21.2762 28.5508 22.9323 28.6149" fill="#FFCA21"/>
<path d="M7.18191 59.9696C6.3268 59.9696 6.31448 59.3152 6.31448 59.0626V57.8716C6.31448 57.7998 6.3088 57.7041 6.46079 57.7041H6.90167C7.04514 57.7041 7.03655 57.8055 7.03655 57.8716V59.0626C7.03655 59.1469 7.05082 59.3755 7.36055 59.3755H8.09974C8.40378 59.3755 8.42184 59.1469 8.42184 59.0626V57.8716C8.42184 57.8055 8.41237 57.7041 8.55584 57.7041H8.9995C9.16103 57.7041 9.14587 57.8055 9.14587 57.8716V59.0626C9.14587 59.3152 9.13065 59.9696 8.27553 59.9696H7.18191Z" fill="#FFCA21"/>
<path d="M11.2629 59.8252C10.9617 59.4176 10.5322 58.9039 10.0942 58.3604V59.8099C10.0942 59.873 10.1094 59.9696 9.96025 59.9696H9.54886C9.40066 59.9696 9.41866 59.8739 9.41866 59.8099V57.8716C9.41866 57.8055 9.41202 57.7041 9.54886 57.7041H10.3507C10.5778 57.7041 10.899 58.1624 11.1108 58.4695C11.2743 58.701 11.5755 59.0492 11.7759 59.3095V57.8744C11.7759 57.8084 11.7674 57.707 11.9166 57.707H12.3631C12.5066 57.707 12.4971 57.8084 12.4971 57.8744V59.9725H11.6752C11.4994 59.9725 11.4216 59.984 11.261 59.828" fill="#FFCA21"/>
<path d="M14.6518 59.3707C15.0119 59.3707 14.9853 59.0234 14.9853 58.8646C14.9853 58.3298 14.8361 58.3088 14.5977 58.3088H13.466V59.3707H14.6518ZM12.7715 59.9687V57.7061H14.7553C14.8779 57.7061 15.6912 57.6907 15.6912 58.5518C15.6912 59.431 15.7862 59.9687 14.7734 59.9687H13.7036L13.4718 59.4903V59.9687H12.7715Z" fill="#FFCA21"/>
<path d="M16.4722 57.7217H18.3021C18.457 57.7217 18.4361 57.8231 18.4361 58.0087C18.4361 58.1943 18.4598 58.2842 18.3021 58.2842H16.8522C16.8133 58.2842 16.6821 58.2632 16.6821 58.4019C16.6821 58.5406 16.6555 58.5932 16.8009 58.5932H18.0798C18.0798 58.5932 18.2641 58.9472 18.285 59.0075C18.3059 59.0678 18.3125 59.1127 18.1986 59.1127H16.8769L16.6708 58.711V59.3127C16.6708 59.4505 16.7933 59.4237 16.8285 59.4237H18.3306C18.4798 59.4237 18.4684 59.528 18.4684 59.6992C18.4684 59.8705 18.4798 59.9862 18.3306 59.9862H16.4304C16.2726 59.9862 15.9629 59.9384 15.9629 59.44V58.1962C15.9629 58.067 16.0313 57.7313 16.4693 57.7313" fill="#FFCA21"/>
<path d="M20.5202 58.3031H19.63C19.4808 58.3031 19.4865 58.3538 19.4865 58.3988V58.8044H20.4043C20.848 58.8044 20.848 58.6934 20.848 58.5767C20.848 58.3423 20.8299 58.3031 20.5202 58.3031ZM18.9259 57.7061H20.9287C21.1967 57.7061 21.5872 57.7061 21.5872 58.4322C21.5872 58.9106 21.4855 58.9335 21.2708 59.0799C21.6319 59.1431 21.5843 59.608 21.5843 59.8453C21.5843 59.9687 21.5397 59.9658 21.5036 59.9658H20.9164C20.7948 59.9658 20.8214 59.7745 20.8214 59.6683C20.8214 59.3889 20.6665 59.4014 20.6066 59.4014H19.743C19.6594 59.2569 19.4988 58.9335 19.4988 58.9335V59.8721C19.4988 59.9534 19.418 59.9678 19.3877 59.9678H18.7976C18.8309 59.9678 18.7387 59.9735 18.7387 59.8922V57.9012C18.737 57.8762 18.7405 57.851 18.749 57.8273C18.7576 57.8037 18.7711 57.7821 18.7884 57.7641C18.8058 57.746 18.8268 57.7319 18.85 57.7226C18.8732 57.7132 18.8981 57.7089 18.923 57.7099" fill="#FFCA21"/>
<path d="M24.7967 58.3483C24.7644 58.4057 24.4518 58.9749 24.4281 59.0266C24.4129 59.0505 24.4281 59.0591 24.4604 59.0591H25.1483C25.1872 59.0591 25.1958 59.0505 25.1844 59.0266C25.1607 58.9749 24.8623 58.4057 24.8328 58.3454C24.8316 58.3415 24.8292 58.3382 24.8259 58.3359C24.8227 58.3335 24.8188 58.3322 24.8148 58.3322C24.8108 58.3322 24.8069 58.3335 24.8036 58.3359C24.8004 58.3382 24.798 58.3415 24.7967 58.3454V58.3483ZM25.0352 57.7188C25.1816 57.7188 25.3202 57.7847 25.4799 58.0871C25.5834 58.3033 26.3103 59.6264 26.4632 59.9048V59.9823H25.7031L25.4855 59.5862H24.5678C24.5678 59.5862 24.4129 59.2294 24.3682 59.1308C24.3112 59.2265 24.0072 59.8006 23.9027 59.9823H23.1426V59.9345C23.2974 59.6408 24.3549 57.7235 24.3549 57.7235L25.0352 57.7188Z" fill="#FFCA21"/>
<path d="M28.444 58.3031H27.5528C27.4036 58.3031 27.4103 58.3538 27.4103 58.3988V58.8044H28.3272C28.7718 58.8044 28.7718 58.6934 28.7718 58.5767C28.7718 58.3423 28.7538 58.3031 28.444 58.3031ZM26.8497 57.7061H28.8526C29.1205 57.7061 29.5111 57.7061 29.5111 58.4322C29.5111 58.9106 29.4094 58.9335 29.1946 59.0799C29.5557 59.1431 29.5072 59.608 29.5072 59.8453C29.5072 59.9687 29.4635 59.9658 29.4274 59.9658H28.8403C28.7186 59.9658 28.7452 59.7745 28.7452 59.6683C28.7452 59.3889 28.5903 59.4014 28.5305 59.4014H27.6659C27.5832 59.2569 27.4217 58.9335 27.4217 58.9335V59.8721C27.4217 59.9534 27.3409 59.9678 27.3115 59.9678H26.7215C26.7547 59.9678 26.6626 59.9735 26.6626 59.8922V57.9012C26.6608 57.8762 26.6643 57.851 26.6729 57.8273C26.6814 57.8037 26.6949 57.7821 26.7122 57.7641C26.7296 57.746 26.7506 57.7319 26.7738 57.7226C26.797 57.7132 26.8219 57.7089 26.8469 57.7099" fill="#FFCA21"/>
<path d="M31.2626 59.969C31.1143 59.682 30.7001 58.91 30.4198 58.3991V59.8102C30.4198 59.8724 30.4284 59.969 30.2859 59.969H29.8802C29.7282 59.969 29.7405 59.8733 29.7405 59.8102V57.8709C29.7405 57.8049 29.7319 57.7064 29.8802 57.7064H30.5804C30.6849 57.7064 30.8341 57.6825 31.0004 58.0183C31.1258 58.2881 31.3908 58.8468 31.5704 59.1434C31.7839 58.7787 31.9787 58.4031 32.1538 58.0183C32.3181 57.6825 32.4635 57.7064 32.5804 57.7064H33.2778C33.4203 57.7064 33.4061 57.8021 33.4061 57.8709V59.8102C33.4061 59.8724 33.427 59.969 33.2778 59.969H32.8692C32.7201 59.969 32.7324 59.8733 32.7324 59.8102V58.3991C32.4474 58.91 32.0379 59.6868 31.883 59.969H31.2626Z" fill="#FFCA21"/>
<path d="M35.6431 59.3915C35.9804 59.3915 35.968 59.0414 35.968 58.807C35.968 58.5965 36.0156 58.2665 35.5775 58.2665H34.8364C34.4013 58.2665 34.4564 58.5965 34.4564 58.807C34.4564 59.0414 34.4355 59.3915 34.7728 59.3915H35.6431ZM34.3129 59.9742C33.6479 59.9742 33.6782 59.2567 33.6782 58.7917C33.6782 58.366 33.6307 57.6991 34.4621 57.6934H35.9376C36.7719 57.6934 36.7177 58.3688 36.7177 58.7917C36.7177 59.2567 36.751 59.9742 36.0773 59.9742H34.3129Z" fill="#FFCA21"/>
<path d="M37.8245 59.9696C36.9694 59.9696 36.9571 59.3152 36.9571 59.0626V57.8716C36.9571 57.7998 36.9513 57.7041 37.1024 57.7041H37.5442C37.6867 57.7041 37.6782 57.8055 37.6782 57.8716V59.0626C37.6782 59.1469 37.6925 59.3755 38.0031 59.3755H38.7414C39.0454 59.3755 39.0635 59.1469 39.0635 59.0626V57.8716C39.0635 57.8055 39.0549 57.7041 39.1974 57.7041H39.6421C39.8027 57.7041 39.7874 57.8055 39.7874 57.8716V59.0626C39.7874 59.3152 39.7732 59.9696 38.9181 59.9696H37.8245Z" fill="#FFCA21"/>
<path d="M41.8561 58.3031H40.9649C40.8158 58.3031 40.8214 58.3538 40.8214 58.3988V58.8044H41.7393C42.1839 58.8044 42.1839 58.6934 42.1839 58.5767C42.1839 58.3423 42.1659 58.3031 41.8561 58.3031ZM40.2618 57.7061H42.2647C42.5326 57.7061 42.9231 57.7061 42.9231 58.4322C42.9231 58.9106 42.8215 58.9335 42.6068 59.0799C42.9678 59.1431 42.9193 59.608 42.9193 59.8453C42.9193 59.9687 42.8747 59.9658 42.8395 59.9658H42.2523C42.1298 59.9658 42.1574 59.7745 42.1574 59.6683C42.1574 59.3889 42.0025 59.4014 41.9426 59.4014H41.0808C40.9972 59.2569 40.8367 58.9335 40.8367 58.9335V59.8721C40.8367 59.9534 40.7559 59.9678 40.7264 59.9678H40.1364C40.1697 59.9678 40.0766 59.9735 40.0766 59.8922V57.9012C40.0749 57.8757 40.0786 57.8501 40.0876 57.8261C40.0965 57.8021 40.1105 57.7803 40.1285 57.7622C40.1464 57.7441 40.1681 57.7301 40.1919 57.721C40.2157 57.712 40.2412 57.7082 40.2666 57.7099" fill="#FFCA21"/>
<path d="M43.3498 59.6638H43.4306C43.4724 59.6638 43.48 59.6513 43.48 59.6331V59.6284C43.48 59.6044 43.4724 59.591 43.4306 59.591H43.3498V59.6638ZM43.289 59.8388V59.5862C43.289 59.5489 43.289 59.5394 43.3289 59.5394H43.4562C43.4815 59.5394 43.5056 59.5495 43.5235 59.5674C43.5413 59.5853 43.5513 59.6097 43.5513 59.635C43.5513 59.6867 43.5285 59.7307 43.4771 59.7307C43.4933 59.7613 43.5161 59.8063 43.5332 59.834C43.5503 59.8618 43.4933 59.8857 43.4838 59.8762C43.4468 59.8216 43.423 59.7747 43.3983 59.7374H43.3536V59.8503C43.3536 59.8809 43.328 59.8828 43.3137 59.8828C43.2995 59.8828 43.2909 59.8599 43.2909 59.8408L43.289 59.8388ZM43.405 59.9278C43.4342 59.9273 43.463 59.9212 43.4898 59.9095C43.5166 59.8978 43.5409 59.881 43.5612 59.8598C43.5815 59.8388 43.5975 59.8138 43.6083 59.7865C43.6191 59.7592 43.6244 59.73 43.624 59.7006C43.6235 59.6712 43.6174 59.6422 43.6058 59.6152C43.5942 59.5882 43.5775 59.5637 43.5565 59.5433C43.5355 59.5228 43.5108 59.5067 43.4837 59.4958C43.4565 59.485 43.4275 59.4796 43.3983 59.48C43.3406 59.4804 43.2852 59.5027 43.243 59.5424C43.2009 59.5821 43.1753 59.6364 43.1712 59.6944C43.1709 59.7245 43.1765 59.7545 43.1878 59.7824C43.1992 59.8103 43.216 59.8357 43.2373 59.8569C43.2585 59.8781 43.2839 59.8949 43.3117 59.9061C43.3395 59.9173 43.3693 59.9227 43.3993 59.9221L43.405 59.9278ZM43.1124 59.6944C43.1154 59.6183 43.1473 59.5462 43.2013 59.4929C43.2553 59.4396 43.3275 59.409 43.4031 59.4073C43.4411 59.4063 43.479 59.413 43.5144 59.4269C43.5499 59.4409 43.5822 59.4619 43.6095 59.4887C43.6368 59.5154 43.6585 59.5474 43.6733 59.5827C43.6881 59.618 43.6957 59.656 43.6957 59.6944C43.6952 59.774 43.6634 59.8501 43.6074 59.9062C43.5513 59.9623 43.4754 59.9938 43.3964 59.9938C43.3581 59.993 43.3204 59.9847 43.2854 59.9693C43.2503 59.9538 43.2186 59.9315 43.1922 59.9037C43.1656 59.8759 43.1449 59.843 43.1311 59.8071C43.1172 59.7712 43.1105 59.7329 43.1114 59.6944" fill="#FFCA21"/>
<path d="M1.38148 59.6118L1.26651 59.3248H0.566273L0.453208 59.6118H0L0.665088 58.0811H1.18955L1.85464 59.6118H1.38148ZM0.917822 58.437L0.700241 58.9862H1.13825L0.917822 58.437Z" fill="#FFCA21"/>
<path d="M3.88075 59.6118L3.10925 58.6819V59.6118H2.68359V58.0811H3.0798L3.85035 59.012V58.0811H4.276V59.6118H3.88075Z" fill="#FFCA21"/>
<path d="M45.291 59.6123V58.0815H46.0815C46.2474 58.0695 46.4134 58.1026 46.5623 58.1772C46.6135 58.2067 46.6556 58.2497 46.6841 58.3017C46.7126 58.3537 46.7263 58.4125 46.7238 58.4719C46.7247 58.5453 46.7014 58.6169 46.6576 58.6756C46.6138 58.7343 46.5518 58.7767 46.4815 58.7962C46.6823 58.8599 46.7824 58.9814 46.7818 59.1607C46.7848 59.2262 46.7709 59.2914 46.7412 59.3498C46.7115 59.4082 46.6672 59.4578 46.6126 59.4936C46.4628 59.5795 46.2915 59.6194 46.1195 59.6084L45.291 59.6123ZM46.0729 58.6756C46.223 58.6756 46.2981 58.6268 46.2981 58.5293C46.2988 58.5098 46.294 58.4906 46.2844 58.4737C46.2749 58.4569 46.2609 58.4429 46.2439 58.4336C46.1857 58.4092 46.1226 58.3987 46.0596 58.403H45.7043V58.6804L46.0729 58.6756ZM46.0815 59.2946C46.153 59.3001 46.2248 59.288 46.2905 59.2592C46.3112 59.2465 46.3279 59.2282 46.3386 59.2064C46.3494 59.1845 46.3538 59.1601 46.3514 59.1358C46.3533 59.1109 46.3484 59.086 46.3371 59.0636C46.3259 59.0414 46.3088 59.0227 46.2877 59.0095C46.2233 58.9793 46.1524 58.9661 46.0815 58.9712H45.7015V59.2946H46.0815Z" fill="#FFCA21"/>
<path d="M48.7699 59.6118L48.4659 59.0933H48.1162V59.6118H47.6953V58.0811H48.4725C48.9248 58.0811 49.1512 58.2504 49.1518 58.5891C49.1573 58.6786 49.1342 58.7675 49.0858 58.8428C49.0374 58.918 48.9663 58.9756 48.883 59.0072L49.2554 59.6118H48.7699ZM48.444 58.767C48.5169 58.7724 48.5899 58.7576 48.6549 58.724C48.6751 58.7072 48.6912 58.6862 48.7024 58.6623C48.7135 58.6385 48.7192 58.6125 48.7192 58.5862C48.7192 58.5599 48.7135 58.5339 48.7024 58.5101C48.6912 58.4863 48.6751 58.4652 48.6549 58.4484C48.59 58.4157 48.5174 58.4015 48.445 58.4073H48.1124V58.767H48.444Z" fill="#FFCA21"/>
<path d="M51.318 59.6118L51.203 59.3248H50.5028L50.3897 59.6118H49.9355L50.6006 58.0811H51.1251L51.7902 59.6118H51.318ZM50.8534 58.437L50.6339 58.9862H51.0729L50.8534 58.437Z" fill="#FFCA21"/>
<path d="M53.8153 59.6118L53.0448 58.6819V59.6118H52.6191V58.0811H53.0153L53.7859 59.012V58.0811H54.2115V59.6118H53.8153Z" fill="#FFCA21"/>
<path d="M55.2012 59.6118V58.0811H55.9166C56.2207 58.0811 56.4509 58.1448 56.6074 58.2724C56.6879 58.3433 56.7511 58.432 56.792 58.5316C56.8329 58.6312 56.8504 58.739 56.843 58.8464C56.8487 58.9538 56.8293 59.0609 56.7865 59.1593C56.7435 59.2577 56.6783 59.3445 56.5959 59.4128C56.4313 59.5461 56.1979 59.6124 55.8957 59.6118H55.2012ZM55.9061 59.2521C56.2263 59.2521 56.3869 59.1153 56.3869 58.8446C56.3869 58.5738 56.233 58.4408 55.9251 58.4408H55.6401V59.2521H55.9061Z" fill="#FFCA21"/>
</g>
<path d="M14.1694 52.084H11.0653L10.9209 51.995C10.4045 51.6321 9.98267 51.149 9.69142 50.5868C9.40016 50.0246 9.24805 49.3998 9.24805 48.7656C9.24805 48.1315 9.40016 47.5068 9.69142 46.9445C9.98267 46.3823 10.4045 45.8991 10.9209 45.5363L11.0663 45.4482H14.1732V46.6662H11.4255C11.1211 46.9235 10.8762 47.2447 10.7083 47.6074C10.5404 47.9701 10.4533 48.3654 10.4533 48.7656C10.4533 49.1658 10.5404 49.5612 10.7083 49.9239C10.8762 50.2866 11.1211 50.6079 11.4255 50.8652H14.1656L14.1694 52.084Z" fill="#FFCA21"/>
<path d="M19.9064 52.084C19.4356 52.0878 18.971 51.9745 18.5542 51.754C18.1373 51.5335 17.7809 51.2127 17.5168 50.8201L17.4219 50.6738V45.4014H18.6314V50.2997C18.7928 50.4781 18.9894 50.6206 19.2086 50.718C19.4279 50.8155 19.6649 50.8659 19.9045 50.8659C20.1442 50.8659 20.3812 50.8155 20.6004 50.718C20.8197 50.6206 21.0162 50.4781 21.1777 50.2997V45.4014H22.391V50.6719L22.3027 50.8173C22.0378 51.2109 21.6805 51.5325 21.2624 51.7536C20.8444 51.9745 20.3786 52.0881 19.9064 52.084Z" fill="#FFCA21"/>
<path d="M45.9529 45.4023V47.9041C45.7891 48.0861 45.5893 48.2315 45.3663 48.3309C45.1434 48.4305 44.9023 48.4818 44.6584 48.4818C44.4145 48.4818 44.1733 48.4305 43.9503 48.3309C43.7274 48.2315 43.5276 48.0861 43.3638 47.9041V45.4023H42.1543V48.2801L42.2417 48.4265C42.6593 49.0463 43.2986 49.4796 44.0261 49.6358V52.0668H45.2356V49.6491C45.9839 49.5026 46.6441 49.0633 47.0712 48.4274L47.1595 48.282V45.4023H45.9529Z" fill="#FFCA21"/>
<path d="M26.857 52.0677V49.6243H27.6228L29.1991 52.0677H30.6414L29.0651 49.6243H29.4451L29.5895 49.5353C29.9159 49.3097 30.1827 49.0076 30.367 48.655C30.5514 48.3024 30.6478 47.9099 30.6478 47.5114C30.6478 47.1128 30.5514 46.7203 30.367 46.3677C30.1827 46.0151 29.9159 45.713 29.5895 45.4874L29.4451 45.3994H26.6936H25.6484V52.0639L26.857 52.0677ZM26.857 46.6145H29.0632C29.1809 46.7312 29.2743 46.8704 29.3381 47.0239C29.4019 47.1774 29.4348 47.3421 29.4348 47.5085C29.4348 47.6749 29.4019 47.8396 29.3381 47.9931C29.2743 48.1466 29.1809 48.2858 29.0632 48.4025H26.857V46.6145Z" fill="#FFCA21"/>
<path d="M35.1089 52.0677V49.6243H35.8748L37.451 52.0677H38.8943L37.317 49.6243H37.6971L37.8415 49.5353C38.1678 49.3097 38.4346 49.0076 38.619 48.655C38.8034 48.3024 38.8997 47.9099 38.8997 47.5114C38.8997 47.1128 38.8034 46.7203 38.619 46.3677C38.4346 46.0151 38.1678 45.713 37.8415 45.4874L37.6971 45.3994H34.9455H33.9004V52.0639L35.1089 52.0677ZM35.1089 46.6145H37.3151C37.4328 46.7312 37.5263 46.8704 37.5901 47.0239C37.6539 47.1774 37.6867 47.3421 37.6867 47.5085C37.6867 47.6749 37.6539 47.8396 37.5901 47.9931C37.5263 48.1466 37.4328 48.2858 37.3151 48.4025H35.1089V46.6145Z" fill="#FFCA21"/>
<path d="M10.7816 17.539C15.7602 13.229 22.4472 9.52362 24.5033 8.3172C26.5223 7.13184 26.8691 6.77982 27.995 3.99386C29.251 0.885508 29.8953 -0.814562 27.9494 0.384193C25.8781 1.66236 22.2582 4.75061 19.5655 7.19886C16.0938 10.356 13.1322 13.7657 10.4823 17.2012C10.108 17.6863 10.356 17.9073 10.7816 17.539Z" fill="#FFCA21"/>
<path d="M45.9471 12.413C33.6431 15.2315 20.557 22.4948 16.1864 25.7218C14.2672 25.5582 13.1042 25.1889 13.1042 24.3948C13.1042 23.0009 19.4558 19.2287 25.3162 16.415C29.7618 14.2786 33.4055 12.4791 34.7851 11.8658C36.0829 11.2918 37.0169 9.96484 37.9101 8.68954C39.6991 6.13222 40.7604 4.18152 38.9799 4.75076C38.3623 4.94784 33.015 7.29178 24.1238 12.2456C12.2254 18.8756 9.28284 22.9263 9.25051 24.8627C9.2154 26.6976 11.0054 27.5845 13.5214 28.0342C11.6306 29.9141 10.3707 31.8515 10.3336 33.784C10.2586 37.6845 15.4815 39.1033 23.967 38.2719C32.5903 37.4262 43.5129 34.0739 43.5129 29.6663C43.5129 26.0873 36.6787 25.9112 27.5509 25.9514L21.4311 26.0595C21.4311 26.0595 25.0644 24.105 28.6198 22.6795C33.8217 20.591 39.6744 19.308 41.0806 18.9158C43.2915 18.3006 43.6402 18.1035 45.4075 15.6697C47.1595 13.2588 48.0298 11.9385 45.9471 12.4169V12.413ZM22.9323 28.6139C32.4982 28.9861 35.6953 29.4492 35.6744 30.536C35.6393 32.4236 30.1637 34.2336 24.7138 35.0191C19.6601 35.7471 14.119 35.5664 14.1674 33.0378C14.195 31.5759 15.6182 29.9811 17.6914 28.4456C19.452 28.5297 21.2762 28.5508 22.9323 28.6149" fill="#FFCA21"/>
<path d="M7.18191 59.9696C6.3268 59.9696 6.31448 59.3152 6.31448 59.0626V57.8716C6.31448 57.7998 6.3088 57.7041 6.46079 57.7041H6.90167C7.04514 57.7041 7.03655 57.8055 7.03655 57.8716V59.0626C7.03655 59.1469 7.05082 59.3755 7.36055 59.3755H8.09974C8.40378 59.3755 8.42184 59.1469 8.42184 59.0626V57.8716C8.42184 57.8055 8.41237 57.7041 8.55584 57.7041H8.9995C9.16103 57.7041 9.14587 57.8055 9.14587 57.8716V59.0626C9.14587 59.3152 9.13065 59.9696 8.27553 59.9696H7.18191Z" fill="#FFCA21"/>
<path d="M11.2629 59.8252C10.9617 59.4176 10.5322 58.9039 10.0942 58.3604V59.8099C10.0942 59.873 10.1094 59.9696 9.96025 59.9696H9.54886C9.40066 59.9696 9.41866 59.8739 9.41866 59.8099V57.8716C9.41866 57.8055 9.41202 57.7041 9.54886 57.7041H10.3507C10.5778 57.7041 10.899 58.1624 11.1108 58.4695C11.2743 58.701 11.5755 59.0492 11.7759 59.3095V57.8744C11.7759 57.8084 11.7674 57.707 11.9166 57.707H12.3631C12.5066 57.707 12.4971 57.8084 12.4971 57.8744V59.9725H11.6752C11.4994 59.9725 11.4216 59.984 11.261 59.828" fill="#FFCA21"/>
<path d="M14.6518 59.3707C15.0119 59.3707 14.9853 59.0234 14.9853 58.8646C14.9853 58.3298 14.8361 58.3088 14.5977 58.3088H13.466V59.3707H14.6518ZM12.7715 59.9687V57.7061H14.7553C14.8779 57.7061 15.6912 57.6907 15.6912 58.5518C15.6912 59.431 15.7862 59.9687 14.7734 59.9687H13.7036L13.4718 59.4903V59.9687H12.7715Z" fill="#FFCA21"/>
<path d="M16.4722 57.7217H18.3021C18.457 57.7217 18.4361 57.8231 18.4361 58.0087C18.4361 58.1943 18.4598 58.2842 18.3021 58.2842H16.8522C16.8133 58.2842 16.6821 58.2632 16.6821 58.4019C16.6821 58.5406 16.6555 58.5932 16.8009 58.5932H18.0798C18.0798 58.5932 18.2641 58.9472 18.285 59.0075C18.3059 59.0678 18.3125 59.1127 18.1986 59.1127H16.8769L16.6708 58.711V59.3127C16.6708 59.4505 16.7933 59.4237 16.8285 59.4237H18.3306C18.4798 59.4237 18.4684 59.528 18.4684 59.6992C18.4684 59.8705 18.4798 59.9862 18.3306 59.9862H16.4304C16.2726 59.9862 15.9629 59.9384 15.9629 59.44V58.1962C15.9629 58.067 16.0313 57.7313 16.4693 57.7313" fill="#FFCA21"/>
<path d="M20.5202 58.3031H19.63C19.4808 58.3031 19.4865 58.3538 19.4865 58.3988V58.8044H20.4043C20.848 58.8044 20.848 58.6934 20.848 58.5767C20.848 58.3423 20.8299 58.3031 20.5202 58.3031ZM18.9259 57.7061H20.9287C21.1967 57.7061 21.5872 57.7061 21.5872 58.4322C21.5872 58.9106 21.4855 58.9335 21.2708 59.0799C21.6319 59.1431 21.5843 59.608 21.5843 59.8453C21.5843 59.9687 21.5397 59.9658 21.5036 59.9658H20.9164C20.7948 59.9658 20.8214 59.7745 20.8214 59.6683C20.8214 59.3889 20.6665 59.4014 20.6066 59.4014H19.743C19.6594 59.2569 19.4988 58.9335 19.4988 58.9335V59.8721C19.4988 59.9534 19.418 59.9678 19.3877 59.9678H18.7976C18.8309 59.9678 18.7387 59.9735 18.7387 59.8922V57.9012C18.737 57.8762 18.7405 57.851 18.749 57.8273C18.7576 57.8037 18.7711 57.7821 18.7884 57.7641C18.8058 57.746 18.8268 57.7319 18.85 57.7226C18.8732 57.7132 18.8981 57.7089 18.923 57.7099" fill="#FFCA21"/>
<path d="M24.7967 58.3483C24.7644 58.4057 24.4518 58.9749 24.4281 59.0266C24.4129 59.0505 24.4281 59.0591 24.4604 59.0591H25.1483C25.1872 59.0591 25.1958 59.0505 25.1844 59.0266C25.1607 58.9749 24.8623 58.4057 24.8328 58.3454C24.8316 58.3415 24.8292 58.3382 24.8259 58.3359C24.8227 58.3335 24.8188 58.3322 24.8148 58.3322C24.8108 58.3322 24.8069 58.3335 24.8036 58.3359C24.8004 58.3382 24.798 58.3415 24.7967 58.3454V58.3483ZM25.0352 57.7188C25.1816 57.7188 25.3202 57.7847 25.4799 58.0871C25.5834 58.3033 26.3103 59.6264 26.4632 59.9048V59.9823H25.7031L25.4855 59.5862H24.5678C24.5678 59.5862 24.4129 59.2294 24.3682 59.1308C24.3112 59.2265 24.0072 59.8006 23.9027 59.9823H23.1426V59.9345C23.2974 59.6408 24.3549 57.7235 24.3549 57.7235L25.0352 57.7188Z" fill="#FFCA21"/>
<path d="M28.444 58.3031H27.5528C27.4036 58.3031 27.4103 58.3538 27.4103 58.3988V58.8044H28.3272C28.7718 58.8044 28.7718 58.6934 28.7718 58.5767C28.7718 58.3423 28.7538 58.3031 28.444 58.3031ZM26.8497 57.7061H28.8526C29.1205 57.7061 29.5111 57.7061 29.5111 58.4322C29.5111 58.9106 29.4094 58.9335 29.1946 59.0799C29.5557 59.1431 29.5072 59.608 29.5072 59.8453C29.5072 59.9687 29.4635 59.9658 29.4274 59.9658H28.8403C28.7186 59.9658 28.7452 59.7745 28.7452 59.6683C28.7452 59.3889 28.5903 59.4014 28.5305 59.4014H27.6659C27.5832 59.2569 27.4217 58.9335 27.4217 58.9335V59.8721C27.4217 59.9534 27.3409 59.9678 27.3115 59.9678H26.7215C26.7547 59.9678 26.6626 59.9735 26.6626 59.8922V57.9012C26.6608 57.8762 26.6643 57.851 26.6729 57.8273C26.6814 57.8037 26.6949 57.7821 26.7122 57.7641C26.7296 57.746 26.7506 57.7319 26.7738 57.7226C26.797 57.7132 26.8219 57.7089 26.8469 57.7099" fill="#FFCA21"/>
<path d="M31.2626 59.969C31.1143 59.682 30.7001 58.91 30.4198 58.3991V59.8102C30.4198 59.8724 30.4284 59.969 30.2859 59.969H29.8802C29.7282 59.969 29.7405 59.8733 29.7405 59.8102V57.8709C29.7405 57.8049 29.7319 57.7064 29.8802 57.7064H30.5804C30.6849 57.7064 30.8341 57.6825 31.0004 58.0183C31.1258 58.2881 31.3908 58.8468 31.5704 59.1434C31.7839 58.7787 31.9787 58.4031 32.1538 58.0183C32.3181 57.6825 32.4635 57.7064 32.5804 57.7064H33.2778C33.4203 57.7064 33.4061 57.8021 33.4061 57.8709V59.8102C33.4061 59.8724 33.427 59.969 33.2778 59.969H32.8692C32.7201 59.969 32.7324 59.8733 32.7324 59.8102V58.3991C32.4474 58.91 32.0379 59.6868 31.883 59.969H31.2626Z" fill="#FFCA21"/>
<path d="M35.6431 59.3915C35.9804 59.3915 35.968 59.0414 35.968 58.807C35.968 58.5965 36.0156 58.2665 35.5775 58.2665H34.8364C34.4013 58.2665 34.4564 58.5965 34.4564 58.807C34.4564 59.0414 34.4355 59.3915 34.7728 59.3915H35.6431ZM34.3129 59.9742C33.6479 59.9742 33.6782 59.2567 33.6782 58.7917C33.6782 58.366 33.6307 57.6991 34.4621 57.6934H35.9376C36.7719 57.6934 36.7177 58.3688 36.7177 58.7917C36.7177 59.2567 36.751 59.9742 36.0773 59.9742H34.3129Z" fill="#FFCA21"/>
<path d="M37.8245 59.9696C36.9694 59.9696 36.9571 59.3152 36.9571 59.0626V57.8716C36.9571 57.7998 36.9513 57.7041 37.1024 57.7041H37.5442C37.6867 57.7041 37.6782 57.8055 37.6782 57.8716V59.0626C37.6782 59.1469 37.6925 59.3755 38.0031 59.3755H38.7414C39.0454 59.3755 39.0635 59.1469 39.0635 59.0626V57.8716C39.0635 57.8055 39.0549 57.7041 39.1974 57.7041H39.6421C39.8027 57.7041 39.7874 57.8055 39.7874 57.8716V59.0626C39.7874 59.3152 39.7732 59.9696 38.9181 59.9696H37.8245Z" fill="#FFCA21"/>
<path d="M41.8561 58.3031H40.9649C40.8158 58.3031 40.8214 58.3538 40.8214 58.3988V58.8044H41.7393C42.1839 58.8044 42.1839 58.6934 42.1839 58.5767C42.1839 58.3423 42.1659 58.3031 41.8561 58.3031ZM40.2618 57.7061H42.2647C42.5326 57.7061 42.9231 57.7061 42.9231 58.4322C42.9231 58.9106 42.8215 58.9335 42.6068 59.0799C42.9678 59.1431 42.9193 59.608 42.9193 59.8453C42.9193 59.9687 42.8747 59.9658 42.8395 59.9658H42.2523C42.1298 59.9658 42.1574 59.7745 42.1574 59.6683C42.1574 59.3889 42.0025 59.4014 41.9426 59.4014H41.0808C40.9972 59.2569 40.8367 58.9335 40.8367 58.9335V59.8721C40.8367 59.9534 40.7559 59.9678 40.7264 59.9678H40.1364C40.1697 59.9678 40.0766 59.9735 40.0766 59.8922V57.9012C40.0749 57.8757 40.0786 57.8501 40.0876 57.8261C40.0965 57.8021 40.1105 57.7803 40.1285 57.7622C40.1464 57.7441 40.1681 57.7301 40.1919 57.721C40.2157 57.712 40.2412 57.7082 40.2666 57.7099" fill="#FFCA21"/>
<path d="M43.3498 59.6638H43.4306C43.4724 59.6638 43.48 59.6513 43.48 59.6331V59.6284C43.48 59.6044 43.4724 59.591 43.4306 59.591H43.3498V59.6638ZM43.289 59.8388V59.5862C43.289 59.5489 43.289 59.5394 43.3289 59.5394H43.4562C43.4815 59.5394 43.5056 59.5495 43.5235 59.5674C43.5413 59.5853 43.5513 59.6097 43.5513 59.635C43.5513 59.6867 43.5285 59.7307 43.4771 59.7307C43.4933 59.7613 43.5161 59.8063 43.5332 59.834C43.5503 59.8618 43.4933 59.8857 43.4838 59.8762C43.4468 59.8216 43.423 59.7747 43.3983 59.7374H43.3536V59.8503C43.3536 59.8809 43.328 59.8828 43.3137 59.8828C43.2995 59.8828 43.2909 59.8599 43.2909 59.8408L43.289 59.8388ZM43.405 59.9278C43.4342 59.9273 43.463 59.9212 43.4898 59.9095C43.5166 59.8978 43.5409 59.881 43.5612 59.8598C43.5815 59.8388 43.5975 59.8138 43.6083 59.7865C43.6191 59.7592 43.6244 59.73 43.624 59.7006C43.6235 59.6712 43.6174 59.6422 43.6058 59.6152C43.5942 59.5882 43.5775 59.5637 43.5565 59.5433C43.5355 59.5228 43.5108 59.5067 43.4837 59.4958C43.4565 59.485 43.4275 59.4796 43.3983 59.48C43.3406 59.4804 43.2852 59.5027 43.243 59.5424C43.2009 59.5821 43.1753 59.6364 43.1712 59.6944C43.1709 59.7245 43.1765 59.7545 43.1878 59.7824C43.1992 59.8103 43.216 59.8357 43.2373 59.8569C43.2585 59.8781 43.2839 59.8949 43.3117 59.9061C43.3395 59.9173 43.3693 59.9227 43.3993 59.9221L43.405 59.9278ZM43.1124 59.6944C43.1154 59.6183 43.1473 59.5462 43.2013 59.4929C43.2553 59.4396 43.3275 59.409 43.4031 59.4073C43.4411 59.4063 43.479 59.413 43.5144 59.4269C43.5499 59.4409 43.5822 59.4619 43.6095 59.4887C43.6368 59.5154 43.6585 59.5474 43.6733 59.5827C43.6881 59.618 43.6957 59.656 43.6957 59.6944C43.6952 59.774 43.6634 59.8501 43.6074 59.9062C43.5513 59.9623 43.4754 59.9938 43.3964 59.9938C43.3581 59.993 43.3204 59.9847 43.2854 59.9693C43.2503 59.9538 43.2186 59.9315 43.1922 59.9037C43.1656 59.8759 43.1449 59.843 43.1311 59.8071C43.1172 59.7712 43.1105 59.7329 43.1114 59.6944" fill="#FFCA21"/>
<path d="M1.38148 59.6118L1.26651 59.3248H0.566273L0.453208 59.6118H0L0.665088 58.0811H1.18955L1.85464 59.6118H1.38148ZM0.917822 58.437L0.700241 58.9862H1.13825L0.917822 58.437Z" fill="#FFCA21"/>
<path d="M3.88075 59.6118L3.10925 58.6819V59.6118H2.68359V58.0811H3.0798L3.85035 59.012V58.0811H4.276V59.6118H3.88075Z" fill="#FFCA21"/>
<path d="M45.291 59.6123V58.0815H46.0815C46.2474 58.0695 46.4134 58.1026 46.5623 58.1772C46.6135 58.2067 46.6556 58.2497 46.6841 58.3017C46.7126 58.3537 46.7263 58.4125 46.7238 58.4719C46.7247 58.5453 46.7014 58.6169 46.6576 58.6756C46.6138 58.7343 46.5518 58.7767 46.4815 58.7962C46.6823 58.8599 46.7824 58.9814 46.7818 59.1607C46.7848 59.2262 46.7709 59.2914 46.7412 59.3498C46.7115 59.4082 46.6672 59.4578 46.6126 59.4936C46.4628 59.5795 46.2915 59.6194 46.1195 59.6084L45.291 59.6123ZM46.0729 58.6756C46.223 58.6756 46.2981 58.6268 46.2981 58.5293C46.2988 58.5098 46.294 58.4906 46.2844 58.4737C46.2749 58.4569 46.2609 58.4429 46.2439 58.4336C46.1857 58.4092 46.1226 58.3987 46.0596 58.403H45.7043V58.6804L46.0729 58.6756ZM46.0815 59.2946C46.153 59.3001 46.2248 59.288 46.2905 59.2592C46.3112 59.2465 46.3279 59.2282 46.3386 59.2064C46.3494 59.1845 46.3538 59.1601 46.3514 59.1358C46.3533 59.1109 46.3484 59.086 46.3371 59.0636C46.3259 59.0414 46.3088 59.0227 46.2877 59.0095C46.2233 58.9793 46.1524 58.9661 46.0815 58.9712H45.7015V59.2946H46.0815Z" fill="#FFCA21"/>
<path d="M48.7699 59.6118L48.4659 59.0933H48.1162V59.6118H47.6953V58.0811H48.4725C48.9248 58.0811 49.1512 58.2504 49.1518 58.5891C49.1573 58.6786 49.1342 58.7675 49.0858 58.8428C49.0374 58.918 48.9663 58.9756 48.883 59.0072L49.2554 59.6118H48.7699ZM48.444 58.767C48.5169 58.7724 48.5899 58.7576 48.6549 58.724C48.6751 58.7072 48.6912 58.6862 48.7024 58.6623C48.7135 58.6385 48.7192 58.6125 48.7192 58.5862C48.7192 58.5599 48.7135 58.5339 48.7024 58.5101C48.6912 58.4863 48.6751 58.4652 48.6549 58.4484C48.59 58.4157 48.5174 58.4015 48.445 58.4073H48.1124V58.767H48.444Z" fill="#FFCA21"/>
<path d="M51.318 59.6118L51.203 59.3248H50.5028L50.3897 59.6118H49.9355L50.6006 58.0811H51.1251L51.7902 59.6118H51.318ZM50.8534 58.437L50.6339 58.9862H51.0729L50.8534 58.437Z" fill="#FFCA21"/>
<path d="M53.8153 59.6118L53.0448 58.6819V59.6118H52.6191V58.0811H53.0153L53.7859 59.012V58.0811H54.2115V59.6118H53.8153Z" fill="#FFCA21"/>
<path d="M55.2012 59.6118V58.0811H55.9166C56.2207 58.0811 56.4509 58.1448 56.6074 58.2724C56.6879 58.3433 56.7511 58.432 56.792 58.5316C56.8329 58.6312 56.8504 58.739 56.843 58.8464C56.8487 58.9538 56.8293 59.0609 56.7865 59.1593C56.7435 59.2577 56.6783 59.3445 56.5959 59.4128C56.4313 59.5461 56.1979 59.6124 55.8957 59.6118H55.2012ZM55.9061 59.2521C56.2263 59.2521 56.3869 59.1153 56.3869 58.8446C56.3869 58.5738 56.233 58.4408 55.9251 58.4408H55.6401V59.2521H55.9061Z" fill="#FFCA21"/>
</g>
<defs>
<filter id="filter0_f_1945_558" x="-6" y="-6.00195" width="68.8438" height="71.9961" filterUnits="userSpaceOnUse" color-interpolation-filters="sRGB">
<feFlood flood-opacity="0" result="BackgroundImageFix"/>
<feBlend mode="normal" in="SourceGraphic" in2="BackgroundImageFix" result="shape"/>
<feGaussianBlur stdDeviation="3" result="effect1_foregroundBlur_1945_558"/>
</filter>
<clipPath id="clip0_1945_558">
<rect width="56.8421" height="60" fill="white"/>
</clipPath>
</defs>
</svg>
