<svg width="33" height="32" viewBox="0 0 33 32" fill="none" xmlns="http://www.w3.org/2000/svg">
<g clip-path="url(#clip0_2143_354)">
<g filter="url(#filter0_b_2143_354)">
<path d="M32.5 16C32.5 24.8361 25.3361 32 16.5 32C7.66394 32 0.5 24.8361 0.5 16C0.5 7.16394 7.66394 0 16.5 0C25.3379 0 32.5 7.16394 32.5 16Z" fill="black" fill-opacity="0.5"/>
</g>
<path d="M8.39396 16.5373L8.46298 16.4288L12.6252 9.91747C12.6861 9.82214 12.8291 9.832 12.8751 9.93555C13.5704 11.4939 14.1704 13.432 13.8893 14.6386C13.7693 15.1351 13.4406 15.8074 13.0707 16.4288C13.023 16.5192 12.9704 16.608 12.9145 16.6934C12.8882 16.7329 12.8438 16.7559 12.7962 16.7559H8.51559C8.40052 16.7559 8.33312 16.631 8.39396 16.5373Z" fill="white"/>
<path d="M26.9469 17.7479V18.7786C26.9469 18.8378 26.9107 18.8904 26.8581 18.9134C26.536 19.0515 25.4329 19.5578 24.9743 20.1956C23.8039 21.8246 22.9096 24.154 20.9107 24.154H12.5714C9.61581 24.154 7.2207 21.7507 7.2207 18.7852V18.6898C7.2207 18.6109 7.2848 18.5468 7.36371 18.5468H12.0125C12.1046 18.5468 12.172 18.6323 12.1638 18.7227C12.1309 19.0252 12.1868 19.3342 12.3298 19.6153C12.606 20.1759 13.178 20.526 13.7961 20.526H16.0975V18.7293H13.8224C13.7057 18.7293 13.6367 18.5945 13.7041 18.4991C13.7287 18.4613 13.7567 18.4219 13.7862 18.3775C14.0016 18.0718 14.309 17.5967 14.6148 17.0558C14.8235 16.6909 15.0257 16.3013 15.1884 15.9101C15.2213 15.8394 15.2476 15.767 15.2739 15.6964C15.3183 15.5714 15.3644 15.4547 15.3972 15.338C15.4301 15.2394 15.4564 15.1358 15.4827 15.0388C15.56 14.7068 15.5928 14.355 15.5928 13.9901C15.5928 13.847 15.5863 13.6974 15.5731 13.5544C15.5665 13.3983 15.5468 13.2421 15.5271 13.0859C15.5139 12.9478 15.4893 12.8114 15.463 12.6684C15.4301 12.4596 15.3841 12.2525 15.3315 12.0437L15.3134 11.9648C15.2739 11.8218 15.2411 11.6854 15.195 11.5424C15.0652 11.0936 14.9156 10.6563 14.7578 10.247C14.7002 10.0843 14.6345 9.9281 14.5687 9.77194C14.4717 9.53687 14.3731 9.32317 14.2827 9.12097C14.2367 9.0289 14.1972 8.94506 14.1578 8.85959C14.1134 8.7626 14.0674 8.66561 14.0213 8.57357C13.9884 8.50289 13.9506 8.43713 13.9243 8.37137L13.6432 7.85191C13.6038 7.78122 13.6695 7.69738 13.7468 7.71876L15.5057 8.19546H15.5107C15.5139 8.19546 15.5156 8.19713 15.5172 8.19713L15.749 8.26122L16.0038 8.33357L16.0975 8.35985V7.31437C16.0975 6.8097 16.5019 6.40039 17.0016 6.40039C17.2515 6.40039 17.4783 6.50231 17.6411 6.66833C17.8038 6.83437 17.9057 7.06122 17.9057 7.31437V8.86618L18.0932 8.91876C18.1079 8.92372 18.1227 8.93028 18.1359 8.94013C18.1819 8.97466 18.2476 9.02561 18.3315 9.0881C18.3972 9.14068 18.4679 9.20481 18.5534 9.27057C18.7227 9.40698 18.9249 9.58289 19.1468 9.78509C19.206 9.83604 19.2636 9.88865 19.3162 9.94125C19.6022 10.2076 19.9228 10.5199 20.2285 10.8651C20.314 10.9621 20.3978 11.0607 20.4833 11.1643C20.5688 11.2695 20.6592 11.373 20.7381 11.4766C20.8417 11.6147 20.9534 11.7577 21.0504 11.9073C21.0964 11.978 21.1491 12.0503 21.1934 12.121C21.3184 12.31 21.4285 12.5057 21.5337 12.7013C21.5781 12.7917 21.6241 12.8903 21.6636 12.9873C21.7803 13.2487 21.8724 13.515 21.9315 13.7813C21.9496 13.8388 21.9628 13.9013 21.9693 13.9572V13.9703C21.9891 14.0492 21.9956 14.1331 22.0022 14.2185C22.0285 14.4914 22.0154 14.7643 21.9562 15.0388C21.9315 15.1556 21.8987 15.2657 21.8592 15.3824C21.8197 15.4942 21.7803 15.6109 21.7293 15.721C21.6307 15.9495 21.514 16.178 21.3759 16.3917C21.3315 16.4706 21.2789 16.5545 21.2263 16.6334C21.1688 16.7172 21.1096 16.7961 21.057 16.8734C20.9847 16.972 20.9074 17.0756 20.8285 17.1676C20.7578 17.2646 20.6855 17.3616 20.6066 17.4471C20.4964 17.5769 20.3912 17.7002 20.2811 17.8186C20.2154 17.8958 20.1447 17.9748 20.0723 18.0454C20.0017 18.1243 19.9293 18.195 19.8636 18.2608C19.7534 18.3709 19.6614 18.4564 19.5841 18.5271L19.4033 18.6931C19.377 18.7161 19.3425 18.7293 19.3063 18.7293H17.9057V20.526H19.6679C20.0625 20.526 20.4373 20.3863 20.7397 20.1298C20.8433 20.0394 21.2954 19.6482 21.8296 19.0581C21.8477 19.0383 21.8707 19.0235 21.897 19.017L26.7644 17.6098C26.8549 17.5835 26.9469 17.6525 26.9469 17.7479Z" fill="white"/>
</g>
<defs>
<filter id="filter0_b_2143_354" x="-49.5" y="-50" width="132" height="132" filterUnits="userSpaceOnUse" color-interpolation-filters="sRGB">
<feFlood flood-opacity="0" result="BackgroundImageFix"/>
<feGaussianBlur in="BackgroundImage" stdDeviation="25"/>
<feComposite in2="SourceAlpha" operator="in" result="effect1_backgroundBlur_2143_354"/>
<feBlend mode="normal" in="SourceGraphic" in2="effect1_backgroundBlur_2143_354" result="shape"/>
</filter>
<clipPath id="clip0_2143_354">
<rect width="32" height="32" fill="white" transform="translate(0.5)"/>
</clipPath>
</defs>
</svg>
